<svg width="160" height="160" viewBox="0 0 160 160" fill="none" xmlns="http://www.w3.org/2000/svg">
<path d="M99.8869 5.55879C119.153 0.823462 135.773 3.63257 146.07 13.9298C156.367 24.227 159.176 40.847 154.441 60.1126C149.723 79.3083 137.607 100.531 119.069 119.069C100.531 137.607 79.3084 149.723 60.1127 154.441C40.847 159.176 24.2271 156.367 13.9298 146.07C3.63263 135.772 0.823522 119.153 5.55885 99.8868C10.277 80.6911 22.3918 59.4675 40.9297 40.9296C59.4675 22.3917 80.6912 10.2769 99.8869 5.55879Z" stroke="white" stroke-width="6.64448"/>
<path d="M13.9307 13.9303C24.2279 3.63304 40.8478 0.823915 60.1136 5.55928C79.3091 10.2774 100.532 22.3925 119.07 40.9301C137.608 59.4679 149.723 80.6916 154.442 99.8873C159.177 119.153 156.368 135.773 146.071 146.07C135.773 156.367 119.153 159.176 99.8878 154.441C80.6921 149.723 59.4684 137.607 40.9305 119.069C22.3929 100.532 10.2779 79.3087 5.55973 60.1131C0.824369 40.8473 3.63349 24.2275 13.9307 13.9303Z" stroke="white" stroke-width="6.64448"/>
<rect x="76.11" y="59.0826" width="7.7315" height="40.6413" fill="white"/>
<rect x="48.9165" y="83.3808" width="7.7315" height="32.686" transform="rotate(-60 48.9165 83.3808)" fill="white"/>
<rect x="59.6323" y="68.6927" width="7.7315" height="32.686" transform="rotate(-30 59.6323 68.6927)" fill="white"/>
<rect width="7.71086" height="32.5987" transform="matrix(-0.501339 -0.868344 -0.868344 0.501339 112.192 83.3808)" fill="white"/>
<rect width="7.71086" height="32.5987" transform="matrix(-0.868344 -0.501339 -0.501339 0.868344 101.477 68.6927)" fill="white"/>
<rect x="112.192" y="93.1339" width="7.7315" height="64.436" transform="rotate(90 112.192 93.1339)" fill="white"/>
</svg>
