<svg width="58" height="58" viewBox="0 0 58 58" fill="none" xmlns="http://www.w3.org/2000/svg">
<circle cx="28.6221" cy="28.6221" r="28.6221" fill="#CFEE0C"/>
<path d="M29.3779 13.2065C38.3093 13.2065 45.5492 20.4464 45.5492 29.3778C45.5492 38.3092 38.3093 45.5491 29.3779 45.5491C26.52 45.554 23.7124 44.7977 21.2437 43.3579L13.213 45.5491L15.3994 37.5152C13.9585 35.0457 13.2016 32.2369 13.2066 29.3778C13.2066 20.4464 20.4465 13.2065 29.3779 13.2065ZM23.8667 21.7773L23.5433 21.7902C23.3342 21.8046 23.1298 21.8595 22.9417 21.9519C22.7664 22.0514 22.6062 22.1756 22.4663 22.3206C22.2722 22.5034 22.1622 22.6618 22.0442 22.8155C21.446 23.5932 21.124 24.5479 21.1289 25.529C21.1321 26.3214 21.3391 27.0928 21.6625 27.814C22.324 29.2727 23.4123 30.817 24.8483 32.2482C25.1944 32.5927 25.534 32.9387 25.8994 33.2605C27.6838 34.8314 29.8101 35.9643 32.1092 36.5692L33.0278 36.7099C33.3269 36.726 33.6261 36.7034 33.9269 36.6888C34.3978 36.664 34.8575 36.5365 35.2739 36.3153C35.4855 36.2059 35.6922 36.0872 35.8933 35.9595C35.8933 35.9595 35.9618 35.9132 36.0954 35.814C36.3138 35.6523 36.448 35.5375 36.6291 35.3482C36.7649 35.2081 36.8781 35.0453 36.9687 34.8599C37.0948 34.5963 37.221 34.0934 37.2727 33.6745C37.3115 33.3543 37.3002 33.1797 37.2954 33.0713C37.2889 32.8983 37.145 32.7188 36.9881 32.6428L36.0469 32.2207C36.0469 32.2207 34.64 31.6078 33.7797 31.2165C33.6897 31.1773 33.5932 31.1548 33.4951 31.1502C33.3844 31.1386 33.2726 31.1509 33.1671 31.1864C33.0617 31.2218 32.965 31.2795 32.8838 31.3555C32.8757 31.3523 32.7674 31.4445 31.5982 32.8611C31.5311 32.9513 31.4387 33.0194 31.3327 33.0569C31.2267 33.0943 31.112 33.0993 31.0031 33.0713C30.8977 33.0432 30.7945 33.0076 30.6942 32.9646C30.4937 32.8805 30.4242 32.8482 30.2867 32.7899C29.3583 32.3855 28.4989 31.8382 27.7397 31.168C27.536 30.9901 27.3468 30.796 27.1527 30.6084C26.5165 29.9991 25.9621 29.3099 25.5032 28.5579L25.4078 28.4043C25.3403 28.3005 25.285 28.1892 25.2429 28.0728C25.1814 27.8351 25.3415 27.6442 25.3415 27.6442C25.3415 27.6442 25.7345 27.2141 25.9172 26.9812C26.0951 26.7548 26.2455 26.5349 26.3425 26.378C26.5333 26.0708 26.5932 25.7554 26.4929 25.5112C26.0401 24.4051 25.5722 23.3049 25.0892 22.2107C24.9938 21.994 24.7108 21.8387 24.4537 21.808C24.3664 21.7972 24.2791 21.7886 24.1917 21.7821C23.9746 21.7697 23.7569 21.7718 23.54 21.7886L23.8667 21.7773Z" fill="#00160A"/>
</svg>
