<svg width="58" height="58" viewBox="0 0 58 58" fill="none" xmlns="http://www.w3.org/2000/svg">
<circle cx="28.6222" cy="28.6222" r="28.6222" fill="#CFEE0C"/>
<path fill-rule="evenodd" clip-rule="evenodd" d="M35.5057 12.4612H20.7857C15.7047 12.4612 11.5857 16.5802 11.5857 21.6612V36.3812C11.5857 41.4622 15.7047 45.5812 20.7857 45.5812H35.5057C40.5867 45.5812 44.7057 41.4622 44.7057 36.3812V21.6612C44.7057 16.5802 40.5867 12.4612 35.5057 12.4612ZM41.4857 36.3812C41.4756 39.6796 38.8041 42.3511 35.5057 42.3612H20.7857C17.4872 42.3511 14.8158 39.6796 14.8057 36.3812V21.6612C14.8158 18.3628 17.4872 15.6914 20.7857 15.6812H35.5057C38.8041 15.6914 41.4756 18.3628 41.4857 21.6612V36.3812ZM36.8857 22.1212C37.9019 22.1212 38.7257 21.2974 38.7257 20.2812C38.7257 19.2651 37.9019 18.4412 36.8857 18.4412C35.8695 18.4412 35.0457 19.2651 35.0457 20.2812C35.0457 21.2974 35.8695 22.1212 36.8857 22.1212ZM28.1457 20.7412C23.5728 20.7412 19.8657 24.4483 19.8657 29.0212C19.8657 33.5942 23.5728 37.3012 28.1457 37.3012C32.7187 37.3012 36.4257 33.5942 36.4257 29.0212C36.4307 26.8237 35.5598 24.7149 34.0059 23.161C32.452 21.6071 30.3432 20.7364 28.1457 20.7412ZM23.0857 29.0212C23.0857 31.8158 25.3511 34.0812 28.1457 34.0812C30.9403 34.0812 33.2057 31.8158 33.2057 29.0212C33.2057 26.2267 30.9403 23.9612 28.1457 23.9612C25.3511 23.9612 23.0857 26.2267 23.0857 29.0212Z" fill="#00160A"/>
</svg>
