<svg width="183" height="29" viewBox="0 0 183 29" fill="none" xmlns="http://www.w3.org/2000/svg">
<path d="M0 22.5398V0.843925H8.13595C9.80269 0.843925 11.2011 1.15467 12.3311 1.77617C13.4681 2.39767 14.3262 3.25222 14.9053 4.33984C15.4915 5.4204 15.7846 6.64927 15.7846 8.02644C15.7846 9.41775 15.4915 10.6537 14.9053 11.7342C14.3191 12.8148 13.454 13.6658 12.3099 14.2873C11.1657 14.9017 9.75679 15.209 8.08298 15.209H2.6908V11.9779H7.5533C8.52792 11.9779 9.32598 11.8084 9.94747 11.4694C10.569 11.1304 11.028 10.6643 11.3247 10.071C11.6283 9.47778 11.7802 8.79625 11.7802 8.02644C11.7802 7.25664 11.6283 6.57864 11.3247 5.99246C11.028 5.40627 10.5654 4.95074 9.93688 4.62587C9.31538 4.29394 8.51379 4.12797 7.53211 4.12797H3.93026V20.0687C3.93026 21.4334 2.82391 22.5398 1.45916 22.5398H0Z" fill="black"/>
<path d="M27.9085 15.6963V10.1028C27.9085 7.98485 29.6255 6.26789 31.7435 6.26789V20.0687C31.7435 21.4334 30.6371 22.5398 29.2724 22.5398H28.0251V19.6477H27.8556C27.4883 20.5588 26.8845 21.3039 26.044 21.883C25.2107 22.4621 24.1831 22.7517 22.9613 22.7517C21.8949 22.7517 20.952 22.5151 20.1328 22.0419C19.3206 21.5616 18.685 20.866 18.2259 19.9549C17.7668 19.0368 17.5373 17.928 17.5373 16.6285V10.1028C17.5373 7.98484 19.2543 6.26789 21.3722 6.26789V16.0353C21.3722 17.0664 21.6547 17.8856 22.2197 18.493C22.7847 19.1004 23.5263 19.4041 24.4444 19.4041C25.0094 19.4041 25.5567 19.2663 26.0864 18.9909C26.6161 18.7155 27.0504 18.3059 27.3894 17.762C27.7355 17.2112 27.9085 16.5226 27.9085 15.6963Z" fill="black"/>
<path d="M34.1954 22.5398V9.98628C34.1954 7.93267 35.8601 6.26789 37.9137 6.26789V8.97988H38.0832C38.3799 8.04057 38.8884 7.31667 39.6087 6.80817C40.3362 6.29261 41.166 6.03483 42.0983 6.03483C42.3101 6.03483 42.5467 6.04543 42.808 6.06661C43.0764 6.08074 43.2989 6.10546 43.4754 6.14077V9.66847C43.313 9.61197 43.0552 9.56253 42.7021 9.52015C42.356 9.47072 42.0206 9.446 41.6957 9.446C40.9965 9.446 40.368 9.59784 39.81 9.90153C39.2591 10.1982 38.8248 10.6113 38.507 11.141C38.1892 11.6707 38.0303 12.2816 38.0303 12.9737V20.0687C38.0303 21.4334 36.9239 22.5398 35.5592 22.5398H34.1954Z" fill="black"/>
<path d="M48.9227 22.8682C47.8916 22.8682 46.9629 22.6846 46.1366 22.3173C45.3173 21.943 44.6676 21.3921 44.1873 20.6647C43.7141 19.9373 43.4776 19.0403 43.4776 17.9739C43.4776 17.0558 43.6471 16.2966 43.986 15.6963C44.325 15.096 44.7876 14.6157 45.3738 14.2555C45.96 13.8953 46.6203 13.6234 47.3548 13.4398C48.0964 13.2491 48.8627 13.1114 49.6537 13.0267C50.6071 12.9278 51.3804 12.8395 51.9737 12.7618C52.5669 12.6771 52.9977 12.5499 53.2661 12.3805C53.5416 12.2039 53.6793 11.932 53.6793 11.5647V11.5012C53.6793 10.7031 53.4427 10.0852 52.9695 9.64728C52.4963 9.20941 51.8148 8.99047 50.9249 8.99047C49.9856 8.99047 49.2405 9.19528 48.6896 9.6049C48.1458 10.0145 47.7786 10.4983 47.5879 11.0562L44.0072 10.5477C44.2897 9.559 44.7559 8.73269 45.4056 8.06882C46.0553 7.39789 46.8499 6.89645 47.7892 6.56452C48.7285 6.22552 49.7667 6.05602 50.9037 6.05602C51.6877 6.05602 52.4681 6.14783 53.2449 6.33145C54.0218 6.51508 54.7316 6.81876 55.3743 7.24251C56.0169 7.6592 56.5325 8.22772 56.9209 8.9481C57.3164 9.66847 57.5142 10.5689 57.5142 11.6495V20.0687C57.5142 21.4335 56.4078 22.5398 55.0431 22.5398H53.8276V20.3045H53.7005C53.4674 20.7565 53.139 21.1803 52.7152 21.5758C52.2986 21.9642 51.7724 22.2785 51.1368 22.5186C50.5082 22.7517 49.7702 22.8682 48.9227 22.8682ZM49.9185 20.0503C50.6883 20.0503 51.3557 19.8984 51.9207 19.5948C52.4857 19.284 52.9201 18.8744 53.2237 18.3659C53.5345 17.8574 53.6899 17.303 53.6899 16.7027V14.7852C53.5698 14.8841 53.365 14.9759 53.0754 15.0607C52.7929 15.1454 52.4751 15.2196 52.122 15.2831C51.7689 15.3467 51.4193 15.4032 51.0732 15.4526C50.7272 15.5021 50.427 15.5444 50.1728 15.5797C49.6007 15.6574 49.0887 15.7846 48.6367 15.9611C48.1847 16.1377 47.828 16.3849 47.5667 16.7027C47.3054 17.0134 47.1747 17.416 47.1747 17.9104C47.1747 18.6166 47.4325 19.1498 47.9481 19.51C48.4636 19.8702 49.1205 20.0503 49.9185 20.0503Z" fill="black"/>
<path d="M74.1953 1.63494C76.8407 0.984779 79.1223 1.37046 80.5361 2.78435C81.95 4.19826 82.3357 6.47984 81.6856 9.12517C81.0377 11.761 79.3746 14.6754 76.8291 17.2209C74.2837 19.7663 71.3692 21.4295 68.7334 22.0773C66.0881 22.7275 63.8065 22.3418 62.3926 20.9279C60.9787 19.514 60.593 17.2324 61.2432 14.5871C61.891 11.9513 63.5542 9.03683 66.0996 6.49138C68.6451 3.94593 71.5595 2.28279 74.1953 1.63494Z" stroke="#00160A" stroke-width="0.914802"/>
<path d="M62.3927 2.78442C63.8066 1.37051 66.0881 0.984813 68.7335 1.635C71.3693 2.28285 74.2838 3.946 76.8292 6.49145C79.3746 9.03689 81.0378 11.9514 81.6857 14.5872C82.3358 17.2325 81.9501 19.5141 80.5362 20.928C79.1224 22.3419 76.8407 22.7275 74.1954 22.0774C71.5597 21.4295 68.6452 19.7664 66.0997 17.2209C63.5543 14.6755 61.8911 11.761 61.2433 9.12524C60.5931 6.47986 60.9788 4.19832 62.3927 2.78442Z" stroke="#00160A" stroke-width="0.914802"/>
<rect x="70.9374" y="8.99106" width="1.06162" height="5.5805" fill="#00160A"/>
<rect x="67.2035" y="12.3275" width="1.06162" height="4.48814" transform="rotate(-60 67.2035 12.3275)" fill="#00160A"/>
<rect x="68.6748" y="10.3106" width="1.06162" height="4.48814" transform="rotate(-30 68.6748 10.3106)" fill="#00160A"/>
<rect width="1.06162" height="4.48814" transform="matrix(-0.5 -0.866025 -0.866025 0.5 75.8919 12.3275)" fill="#00160A"/>
<rect width="1.06162" height="4.48814" transform="matrix(-0.866025 -0.5 -0.5 0.866025 74.4205 10.3106)" fill="#00160A"/>
<rect x="75.8919" y="13.6667" width="1.06162" height="8.84778" transform="rotate(90 75.8919 13.6667)" fill="#00160A"/>
<path d="M85.4037 4.34341C85.4037 2.52383 86.8787 1.04877 88.6983 1.04877H102.714C102.714 2.86835 101.239 4.34341 99.4191 4.34341H96.0079V18.8462C96.0079 20.9992 94.2625 22.7446 92.1095 22.7446V4.34341H85.4037Z" fill="#00160A"/>
<path d="M109.234 23.0625C107.602 23.0625 106.193 22.7235 105.007 22.0455C103.827 21.3604 102.92 20.3928 102.284 19.1428C101.649 17.8857 101.331 16.4061 101.331 14.704C101.331 13.0302 101.649 11.5612 102.284 10.2971C102.927 9.02582 103.824 8.03708 104.975 7.33083C106.126 6.61752 107.479 6.26087 109.032 6.26087C110.035 6.26087 110.982 6.42331 111.871 6.74818C112.768 7.06599 113.559 7.56036 114.244 8.2313C114.937 8.90223 115.48 9.75679 115.876 10.795C116.271 11.8261 116.469 13.055 116.469 14.4816V15.6575H103.132V13.0726H112.793C112.786 12.3381 112.627 11.6848 112.316 11.1128C112.006 10.5337 111.571 10.0781 111.013 9.74619C110.462 9.41426 109.82 9.24829 109.085 9.24829C108.301 9.24829 107.613 9.43898 107.02 9.82035C106.426 10.1947 105.964 10.689 105.632 11.3035C105.307 11.9108 105.141 12.5782 105.134 13.3057V15.5621C105.134 16.5085 105.307 17.3207 105.653 17.9987C105.999 18.6696 106.483 19.1852 107.104 19.5454C107.726 19.8985 108.453 20.075 109.287 20.075C109.845 20.075 110.349 19.9973 110.801 19.842C111.253 19.6795 111.645 19.4429 111.977 19.1322C112.309 18.8215 112.56 18.4365 112.73 17.9775L116.31 18.38C116.084 19.3264 115.653 20.1527 115.018 20.859C114.389 21.5582 113.584 22.102 112.602 22.4904C111.621 22.8718 110.498 23.0625 109.234 23.0625Z" fill="#00160A"/>
<path d="M118.222 22.7446V10.1911C118.222 8.13752 119.887 6.47274 121.94 6.47274V9.18473H122.11C122.406 8.24542 122.915 7.52152 123.635 7.01302C124.363 6.49746 125.192 6.23968 126.125 6.23968C126.337 6.23968 126.573 6.25028 126.835 6.27146C127.103 6.28559 127.325 6.31031 127.502 6.34562V9.08461C127.502 9.4704 127.112 9.77097 126.729 9.725C126.383 9.67557 126.047 9.65085 125.722 9.65085C125.023 9.65085 124.394 9.80269 123.836 10.1064C123.286 10.403 122.851 10.8162 122.533 11.3458C122.216 11.8755 122.057 12.4864 122.057 13.1785V18.9097C122.057 21.0277 120.34 22.7446 118.222 22.7446Z" fill="#00160A"/>
<path d="M132.949 23.073C131.918 23.073 130.989 22.8894 130.163 22.5222C129.344 22.1479 128.694 21.597 128.214 20.8696C127.741 20.1421 127.504 19.2452 127.504 18.1788C127.504 17.2606 127.674 16.5014 128.013 15.9011C128.352 15.3008 128.814 14.8206 129.4 14.4604C129.986 14.1002 130.647 13.8283 131.381 13.6447C132.123 13.454 132.889 13.3163 133.68 13.2315C134.634 13.1326 135.407 13.0444 136 12.9667C136.593 12.8819 137.024 12.7548 137.293 12.5853C137.568 12.4087 137.706 12.1368 137.706 11.7696V11.706C137.706 10.908 137.469 10.29 136.996 9.85213C136.523 9.41426 135.841 9.19532 134.951 9.19532C134.012 9.19532 133.267 9.40013 132.716 9.80975C132.172 10.2194 131.805 10.7032 131.614 11.2611L128.034 10.7526C128.316 9.76385 128.782 8.93754 129.432 8.27367C130.082 7.60274 130.876 7.1013 131.816 6.76937C132.755 6.43037 133.793 6.26087 134.93 6.26087C135.714 6.26087 136.495 6.35268 137.271 6.5363C138.048 6.71993 138.758 7.02361 139.401 7.44736C140.043 7.86405 140.559 8.43258 140.947 9.15295C141.343 9.87332 141.541 10.7738 141.541 11.8543V19.058C141.541 21.0941 139.89 22.7446 137.854 22.7446V20.5094H137.727C137.494 20.9614 137.165 21.3851 136.742 21.7806C136.325 22.1691 135.799 22.4833 135.163 22.7235C134.535 22.9565 133.797 23.073 132.949 23.073ZM133.945 20.2551C134.715 20.2551 135.382 20.1033 135.947 19.7996C136.512 19.4889 136.947 19.0792 137.25 18.5707C137.561 18.0622 137.716 17.5078 137.716 16.9075V14.9901C137.596 15.0889 137.391 15.1808 137.102 15.2655C136.819 15.3503 136.502 15.4244 136.148 15.488C135.795 15.5515 135.446 15.608 135.1 15.6575C134.754 15.7069 134.453 15.7493 134.199 15.7846C133.627 15.8623 133.115 15.9894 132.663 16.166C132.211 16.3425 131.854 16.5897 131.593 16.9075C131.332 17.2183 131.201 17.6208 131.201 18.1152C131.201 18.8215 131.459 19.3547 131.975 19.7149C132.49 20.075 133.147 20.2551 133.945 20.2551Z" fill="black"/>
<path d="M143.905 28.8466V10.2441C143.905 8.16124 145.594 6.47274 147.677 6.47274V9.16354H147.899C148.097 8.76804 148.376 8.34783 148.736 7.90289C149.096 7.45089 149.583 7.06599 150.198 6.74818C150.812 6.42331 151.596 6.26087 152.55 6.26087C153.807 6.26087 154.94 6.58221 155.95 7.22489C156.967 7.86052 157.772 8.80335 158.366 10.0534C158.966 11.2964 159.266 12.8219 159.266 14.6299C159.266 16.4167 158.973 17.9351 158.387 19.1852C157.801 20.4352 157.003 21.3887 155.993 22.0455C154.983 22.7023 153.839 23.0307 152.56 23.0307C151.628 23.0307 150.855 22.8753 150.24 22.5646C149.626 22.2538 149.131 21.8795 148.757 21.4416C148.39 20.9967 148.104 20.5765 147.899 20.181H147.74V25.0117C147.74 27.1297 146.023 28.8466 143.905 28.8466ZM147.666 14.6087C147.666 15.661 147.814 16.5827 148.111 17.3736C148.415 18.1646 148.849 18.7826 149.414 19.2275C149.986 19.6654 150.678 19.8843 151.49 19.8843C152.338 19.8843 153.048 19.6584 153.62 19.2064C154.192 18.7473 154.622 18.1223 154.912 17.3313C155.209 16.5332 155.357 15.6257 155.357 14.6087C155.357 13.5988 155.212 12.7018 154.923 11.9179C154.633 11.134 154.202 10.5195 153.63 10.0746C153.058 9.62966 152.345 9.40719 151.49 9.40719C150.671 9.40719 149.975 9.6226 149.403 10.0534C148.831 10.4842 148.397 11.0881 148.1 11.8649C147.811 12.6418 147.666 13.5564 147.666 14.6087Z" fill="black"/>
<path d="M161.058 22.7446V10.3076C161.058 8.18969 162.775 6.47274 164.893 6.47274V18.9097C164.893 21.0277 163.176 22.7446 161.058 22.7446ZM162.987 4.16332C162.379 4.16332 161.857 3.96204 161.419 3.55948C160.981 3.14986 160.762 2.65901 160.762 2.08696C160.762 1.50783 160.981 1.01699 161.419 0.614433C161.857 0.204811 162.379 0 162.987 0C163.601 0 164.124 0.204811 164.554 0.614433C164.992 1.01699 165.211 1.50783 165.211 2.08696C165.211 2.65901 164.992 3.14986 164.554 3.55948C164.124 3.96204 163.601 4.16332 162.987 4.16332Z" fill="black"/>
<path d="M172.028 23.073C170.997 23.073 170.068 22.8894 169.242 22.5222C168.422 22.1479 167.773 21.597 167.292 20.8696C166.819 20.1421 166.583 19.2452 166.583 18.1788C166.583 17.2606 166.752 16.5014 167.091 15.9011C167.43 15.3008 167.893 14.8206 168.479 14.4604C169.065 14.1002 169.725 13.8283 170.46 13.6447C171.201 13.454 171.968 13.3163 172.759 13.2315C173.712 13.1326 174.485 13.0444 175.079 12.9667C175.672 12.8819 176.103 12.7548 176.371 12.5853C176.647 12.4087 176.784 12.1368 176.784 11.7696V11.706C176.784 10.908 176.548 10.29 176.074 9.85213C175.601 9.41426 174.92 9.19532 174.03 9.19532C173.091 9.19532 172.346 9.40013 171.795 9.80975C171.251 10.2194 170.884 10.7032 170.693 11.2611L167.112 10.7526C167.395 9.76385 167.861 8.93754 168.511 8.27367C169.16 7.60274 169.955 7.1013 170.894 6.76937C171.833 6.43037 172.872 6.26087 174.009 6.26087C174.793 6.26087 175.573 6.35268 176.35 6.5363C177.127 6.71993 177.837 7.02361 178.479 7.44736C179.122 7.86405 179.637 8.43258 180.026 9.15295C180.421 9.87332 180.619 10.7738 180.619 11.8543V19.058C180.619 21.0941 178.969 22.7446 176.933 22.7446V20.5094H176.805C176.572 20.9614 176.244 21.3851 175.82 21.7806C175.404 22.1691 174.877 22.4833 174.242 22.7235C173.613 22.9565 172.875 23.073 172.028 23.073ZM173.024 20.2551C173.793 20.2551 174.461 20.1033 175.026 19.7996C175.591 19.4889 176.025 19.0792 176.329 18.5707C176.639 18.0622 176.795 17.5078 176.795 16.9075V14.9901C176.675 15.0889 176.47 15.1808 176.18 15.2655C175.898 15.3503 175.58 15.4244 175.227 15.488C174.874 15.5515 174.524 15.608 174.178 15.6575C173.832 15.7069 173.532 15.7493 173.278 15.7846C172.706 15.8623 172.194 15.9894 171.742 16.166C171.29 16.3425 170.933 16.5897 170.672 16.9075C170.41 17.2183 170.28 17.6208 170.28 18.1152C170.28 18.8215 170.538 19.3547 171.053 19.7149C171.569 20.075 172.225 20.2551 173.024 20.2551Z" fill="black"/>
</svg>
