<svg width="183" height="114" viewBox="0 0 183 114" fill="none" xmlns="http://www.w3.org/2000/svg">
<path d="M100.088 2.41309C108.452 0.357291 115.667 1.57739 120.138 6.04785C124.608 10.5183 125.828 17.7336 123.773 26.0977C121.724 34.4313 116.464 43.6453 108.416 51.6934C100.368 59.7414 91.1541 65.0014 82.8204 67.0498C74.4564 69.1056 67.2411 67.8854 62.7706 63.415C58.3002 58.9446 57.0801 51.7293 59.1359 43.3652C61.1842 35.0315 66.4442 25.8176 74.4923 17.7695C82.5404 9.72144 91.7543 4.46143 100.088 2.41309Z" stroke="#00160A" stroke-width="2.89238"/>
<path d="M62.7709 6.04785C67.2414 1.57738 74.4566 0.357258 82.8207 2.41309C91.1544 4.46147 100.368 9.7215 108.416 17.7695C116.464 25.8176 121.725 35.0316 123.773 43.3652C125.829 51.7293 124.609 58.9446 120.138 63.415C115.668 67.8855 108.452 69.1056 100.088 67.0498C91.7547 65.0015 82.5407 59.7414 74.4926 51.6934C66.4446 43.6453 61.1845 34.4313 59.1362 26.0977C57.0803 17.7335 58.3005 10.5183 62.7709 6.04785Z" stroke="#00160A" stroke-width="2.89238"/>
<rect x="90.0087" y="25.8936" width="3.35658" height="17.6442" fill="#00160A"/>
<rect x="78.2029" y="36.4429" width="3.35658" height="14.1904" transform="rotate(-60 78.2029 36.4429)" fill="#00160A"/>
<rect x="82.8549" y="30.0659" width="3.35658" height="14.1904" transform="rotate(-30 82.8549 30.0659)" fill="#00160A"/>
<rect width="3.35658" height="14.1904" transform="matrix(-0.5 -0.866025 -0.866025 0.5 105.674 36.4429)" fill="#00160A"/>
<rect width="3.35658" height="14.1904" transform="matrix(-0.866025 -0.5 -0.5 0.866025 101.022 30.0659)" fill="#00160A"/>
<rect x="105.674" y="40.6768" width="3.35658" height="27.9745" transform="rotate(90 105.674 40.6768)" fill="#00160A"/>
<path d="M0.0843773 106.34V81.1821H9.51853C11.4512 81.1821 13.0727 81.5425 14.383 82.2631C15.7015 82.9838 16.6965 83.9747 17.368 85.2359C18.0478 86.4888 18.3876 87.9138 18.3876 89.5107C18.3876 91.124 18.0478 92.5572 17.368 93.8101C16.6883 95.0631 15.6851 96.0499 14.3584 96.7706C13.0318 97.4831 11.398 97.8393 9.45711 97.8393H3.20453V94.0927H8.84291C9.97304 94.0927 10.8984 93.8961 11.6191 93.503C12.3398 93.1099 12.8721 92.5694 13.216 91.8815C13.5682 91.1936 13.7442 90.4034 13.7442 89.5107C13.7442 88.6181 13.5682 87.8319 13.216 87.1522C12.8721 86.4725 12.3357 85.9442 11.6068 85.5675C10.8862 85.1826 9.95666 84.9902 8.81834 84.9902H4.64176V103.474C4.64176 105.057 3.35888 106.34 1.77637 106.34H0.0843773Z" fill="black"/>
<path d="M32.4461 98.4044V91.9184C32.4461 89.4625 34.437 87.4716 36.8929 87.4716V103.474C36.8929 105.057 35.6101 106.34 34.0275 106.34H32.5812V102.986H32.3847C31.9588 104.043 31.2586 104.907 30.2841 105.578C29.3178 106.25 28.1262 106.586 26.7095 106.586C25.4729 106.586 24.3796 106.311 23.4296 105.763C22.4878 105.206 21.7508 104.399 21.2185 103.343C20.6862 102.278 20.42 100.992 20.42 99.4854V91.9184C20.42 89.4625 22.4109 87.4716 24.8668 87.4716V98.7975C24.8668 99.9931 25.1944 100.943 25.8496 101.647C26.5047 102.352 27.3646 102.704 28.4292 102.704C29.0844 102.704 29.719 102.544 30.3333 102.225C30.9475 101.905 31.4511 101.43 31.8442 100.8C32.2455 100.161 32.4461 99.3625 32.4461 98.4044Z" fill="black"/>
<path d="M39.7361 106.34V91.7833C39.7361 89.402 41.6665 87.4716 44.0478 87.4716V90.6163H44.2443C44.5883 89.5271 45.1779 88.6877 46.0132 88.0981C46.8567 87.5002 47.819 87.2013 48.9 87.2013C49.1457 87.2013 49.42 87.2136 49.723 87.2382C50.0342 87.2545 50.2922 87.2832 50.4969 87.3242V91.4147C50.3086 91.3492 50.0096 91.2919 49.6002 91.2428C49.1989 91.1854 48.8099 91.1568 48.4332 91.1568C47.6224 91.1568 46.8936 91.3329 46.2466 91.685C45.6079 92.0289 45.1042 92.508 44.7357 93.1222C44.3672 93.7364 44.1829 94.4448 44.1829 95.2474V103.474C44.1829 105.057 42.9 106.34 41.3175 106.34H39.7361Z" fill="black"/>
<path d="M56.8134 106.721C55.6177 106.721 54.5408 106.508 53.5827 106.082C52.6327 105.648 51.8793 105.009 51.3224 104.166C50.7737 103.322 50.4994 102.282 50.4994 101.045C50.4994 99.9808 50.6959 99.1005 51.089 98.4044C51.4821 97.7083 52.0185 97.1514 52.6982 96.7337C53.3779 96.3161 54.1436 96.0008 54.9953 95.7879C55.8552 95.5668 56.7438 95.4071 57.661 95.3088C58.7665 95.1941 59.6633 95.0918 60.3512 95.0017C61.0391 94.9034 61.5386 94.756 61.8498 94.5595C62.1692 94.3547 62.3289 94.0394 62.3289 93.6136V93.5399C62.3289 92.6145 62.0546 91.8979 61.5059 91.3902C60.9572 90.8824 60.1669 90.6286 59.1351 90.6286C58.0459 90.6286 57.1819 90.8661 56.5431 91.341C55.9125 91.816 55.4867 92.377 55.2656 93.024L51.1136 92.4343C51.4412 91.2878 51.9816 90.3297 52.7351 89.5599C53.4885 88.7819 54.4098 88.2004 55.499 87.8155C56.5882 87.4224 57.792 87.2259 59.1105 87.2259C60.0195 87.2259 60.9244 87.3323 61.8253 87.5453C62.7261 87.7582 63.5491 88.1103 64.2944 88.6017C65.0396 89.0849 65.6374 89.7441 66.0878 90.5794C66.5464 91.4147 66.7757 92.4589 66.7757 93.7119V103.474C66.7757 105.057 65.4929 106.34 63.9104 106.34H62.5009V103.748H62.3535C62.0832 104.272 61.7024 104.763 61.2111 105.222C60.7279 105.672 60.1178 106.037 59.3807 106.315C58.6519 106.586 57.7961 106.721 56.8134 106.721ZM57.9681 103.453C58.8607 103.453 59.6346 103.277 60.2898 102.925C60.9449 102.565 61.4486 102.09 61.8007 101.5C62.161 100.91 62.3412 100.267 62.3412 99.5714V97.3479C62.202 97.4626 61.9645 97.5691 61.6287 97.6673C61.3012 97.7656 60.9326 97.8516 60.5232 97.9253C60.1137 97.999 59.7083 98.0645 59.307 98.1218C58.9058 98.1792 58.5577 98.2283 58.2629 98.2692C57.5996 98.3593 57.0058 98.5067 56.4817 98.7115C55.9576 98.9162 55.544 99.2028 55.241 99.5714C54.938 99.9317 54.7865 100.398 54.7865 100.972C54.7865 101.791 55.0854 102.409 55.6832 102.827C56.2811 103.244 57.0427 103.453 57.9681 103.453Z" fill="black"/>
<path d="M70.2016 85.2401C70.2016 83.1302 71.9121 81.4197 74.022 81.4197H90.2738C90.2738 83.5297 88.5634 85.2401 86.4534 85.2401H82.498V102.057C82.498 104.554 80.4741 106.577 77.9774 106.577V85.2401H70.2016Z" fill="#00160A"/>
<path d="M97.834 106.946C95.9423 106.946 94.3085 106.553 92.9327 105.767C91.565 104.972 90.5127 103.85 89.7757 102.401C89.0386 100.943 88.6701 99.2275 88.6701 97.2539C88.6701 95.313 89.0386 93.6096 89.7757 92.1437C90.5209 90.6696 91.5609 89.5231 92.8958 88.7042C94.2307 87.8771 95.7989 87.4635 97.6006 87.4635C98.7635 87.4635 99.8609 87.6518 100.893 88.0286C101.933 88.3971 102.85 88.9703 103.644 89.7483C104.447 90.5263 105.077 91.5172 105.536 92.7211C105.995 93.9167 106.224 95.3417 106.224 96.9959V98.3594H90.7584V95.3621H101.961C101.953 94.5104 101.769 93.7529 101.409 93.0896C101.048 92.4181 100.545 91.8898 99.8977 91.5049C99.2589 91.12 98.5137 90.9276 97.662 90.9276C96.753 90.9276 95.9545 91.1487 95.2666 91.5909C94.5787 92.025 94.0423 92.5982 93.6574 93.3107C93.2807 94.015 93.0883 94.7889 93.0801 95.6324V98.2489C93.0801 99.3463 93.2807 100.288 93.682 101.074C94.0833 101.852 94.6442 102.45 95.3649 102.868C96.0856 103.277 96.9291 103.482 97.8954 103.482C98.5424 103.482 99.1279 103.392 99.652 103.212C100.176 103.023 100.631 102.749 101.016 102.389C101.4 102.028 101.691 101.582 101.888 101.05L106.04 101.516C105.778 102.614 105.278 103.572 104.541 104.391C103.812 105.202 102.879 105.832 101.74 106.283C100.602 106.725 99.2999 106.946 97.834 106.946Z" fill="#00160A"/>
<path d="M108.256 106.577V92.0209C108.256 89.6396 110.187 87.7092 112.568 87.7092V90.8539H112.765C113.109 89.7647 113.698 88.9253 114.534 88.3357C115.377 87.7378 116.339 87.4389 117.42 87.4389C117.666 87.4389 117.94 87.4512 118.243 87.4758C118.555 87.4922 118.812 87.5208 119.017 87.5618V90.7378C119.017 91.1851 118.565 91.5337 118.12 91.4804C117.719 91.423 117.33 91.3944 116.954 91.3944C116.143 91.3944 115.414 91.5705 114.767 91.9226C114.128 92.2666 113.625 92.7456 113.256 93.3598C112.887 93.974 112.703 94.6824 112.703 95.485V102.131C112.703 104.587 110.712 106.577 108.256 106.577Z" fill="#00160A"/>
<path d="M125.334 106.958C124.138 106.958 123.061 106.745 122.103 106.32C121.153 105.885 120.4 105.247 119.843 104.403C119.294 103.56 119.02 102.52 119.02 101.283C119.02 100.218 119.216 99.3381 119.609 98.642C120.002 97.9459 120.539 97.389 121.219 96.9713C121.898 96.5537 122.664 96.2384 123.516 96.0255C124.376 95.8044 125.264 95.6447 126.181 95.5464C127.287 95.4317 128.184 95.3294 128.872 95.2393C129.559 95.141 130.059 94.9936 130.37 94.7971C130.69 94.5923 130.849 94.277 130.849 93.8512V93.7775C130.849 92.8521 130.575 92.1355 130.026 91.6278C129.478 91.12 128.687 90.8662 127.655 90.8662C126.566 90.8662 125.702 91.1037 125.063 91.5786C124.433 92.0536 124.007 92.6146 123.786 93.2616L119.634 92.6719C119.961 91.5254 120.502 90.5673 121.255 89.7975C122.009 89.0195 122.93 88.438 124.019 88.0531C125.108 87.66 126.312 87.4635 127.631 87.4635C128.54 87.4635 129.445 87.57 130.346 87.7829C131.246 87.9958 132.069 88.3479 132.815 88.8393C133.56 89.3225 134.158 89.9817 134.608 90.817C135.067 91.6524 135.296 92.6965 135.296 93.9495V102.303C135.296 104.664 133.382 106.577 131.021 106.577V103.986H130.874C130.604 104.51 130.223 105.001 129.731 105.46C129.248 105.91 128.638 106.274 127.901 106.553C127.172 106.823 126.316 106.958 125.334 106.958ZM126.488 103.691C127.381 103.691 128.155 103.515 128.81 103.163C129.465 102.802 129.969 102.327 130.321 101.738C130.681 101.148 130.862 100.505 130.862 99.809V97.5856C130.722 97.7002 130.485 97.8067 130.149 97.9049C129.821 98.0032 129.453 98.0892 129.043 98.1629C128.634 98.2366 128.229 98.3021 127.827 98.3594C127.426 98.4168 127.078 98.4659 126.783 98.5069C126.12 98.5969 125.526 98.7443 125.002 98.9491C124.478 99.1538 124.064 99.4404 123.761 99.809C123.458 100.169 123.307 100.636 123.307 101.209C123.307 102.028 123.606 102.647 124.204 103.064C124.801 103.482 125.563 103.691 126.488 103.691Z" fill="black"/>
<path d="M138.038 113.653V92.0823C138.038 89.6671 139.996 87.7092 142.411 87.7092V90.8293H142.669C142.898 90.3707 143.222 89.8834 143.639 89.3675C144.057 88.8434 144.622 88.3971 145.335 88.0286C146.047 87.6518 146.956 87.4635 148.062 87.4635C149.519 87.4635 150.834 87.8361 152.005 88.5813C153.184 89.3184 154.118 90.4117 154.806 91.8612C155.502 93.3025 155.85 95.0714 155.85 97.1679C155.85 99.2398 155.51 101.001 154.83 102.45C154.15 103.9 153.225 105.005 152.054 105.767C150.883 106.528 149.556 106.909 148.074 106.909C146.993 106.909 146.096 106.729 145.384 106.369C144.671 106.008 144.098 105.574 143.664 105.067C143.238 104.551 142.906 104.063 142.669 103.605H142.485V109.206C142.485 111.662 140.494 113.653 138.038 113.653ZM142.399 97.1433C142.399 98.3635 142.571 99.4323 142.915 100.349C143.267 101.267 143.77 101.983 144.426 102.499C145.089 103.007 145.891 103.261 146.833 103.261C147.816 103.261 148.639 102.999 149.302 102.475C149.966 101.942 150.465 101.218 150.801 100.3C151.145 99.3749 151.317 98.3226 151.317 97.1433C151.317 95.9722 151.149 94.9322 150.813 94.0232C150.478 93.1142 149.978 92.4017 149.315 91.8857C148.651 91.3698 147.824 91.1119 146.833 91.1119C145.883 91.1119 145.077 91.3616 144.413 91.8612C143.75 92.3607 143.246 93.0609 142.902 93.9618C142.567 94.8626 142.399 95.9231 142.399 97.1433Z" fill="black"/>
<path d="M157.928 106.577V92.156C157.928 89.7001 159.919 87.7092 162.375 87.7092V102.131C162.375 104.587 160.384 106.577 157.928 106.577ZM160.164 85.0312C159.46 85.0312 158.854 84.7979 158.346 84.3311C157.838 83.8561 157.584 83.2869 157.584 82.6236C157.584 81.952 157.838 81.3829 158.346 80.9161C158.854 80.4411 159.46 80.2036 160.164 80.2036C160.876 80.2036 161.482 80.4411 161.982 80.9161C162.49 81.3829 162.744 81.952 162.744 82.6236C162.744 83.2869 162.49 83.8561 161.982 84.3311C161.482 84.7979 160.876 85.0312 160.164 85.0312Z" fill="black"/>
<path d="M170.648 106.958C169.452 106.958 168.375 106.745 167.417 106.32C166.467 105.885 165.714 105.247 165.157 104.403C164.608 103.56 164.334 102.52 164.334 101.283C164.334 100.218 164.53 99.3381 164.923 98.642C165.316 97.9459 165.853 97.389 166.533 96.9713C167.212 96.5537 167.978 96.2384 168.83 96.0255C169.69 95.8044 170.578 95.6447 171.495 95.5464C172.601 95.4317 173.498 95.3294 174.186 95.2393C174.873 95.141 175.373 94.9936 175.684 94.7971C176.004 94.5923 176.163 94.277 176.163 93.8512V93.7775C176.163 92.8521 175.889 92.1355 175.34 91.6278C174.792 91.12 174.001 90.8662 172.969 90.8662C171.88 90.8662 171.016 91.1037 170.377 91.5786C169.747 92.0536 169.321 92.6146 169.1 93.2616L164.948 92.6719C165.275 91.5254 165.816 90.5673 166.569 89.7975C167.323 89.0195 168.244 88.438 169.333 88.0531C170.423 87.66 171.626 87.4635 172.945 87.4635C173.854 87.4635 174.759 87.57 175.66 87.7829C176.56 87.9958 177.383 88.3479 178.129 88.8393C178.874 89.3225 179.472 89.9817 179.922 90.817C180.381 91.6524 180.61 92.6965 180.61 93.9495V102.303C180.61 104.664 178.696 106.577 176.335 106.577V103.986H176.188C175.918 104.51 175.537 105.001 175.045 105.46C174.562 105.91 173.952 106.274 173.215 106.553C172.486 106.823 171.63 106.958 170.648 106.958ZM171.802 103.691C172.695 103.691 173.469 103.515 174.124 103.163C174.779 102.802 175.283 102.327 175.635 101.738C175.995 101.148 176.176 100.505 176.176 99.809V97.5856C176.036 97.7002 175.799 97.8067 175.463 97.9049C175.135 98.0032 174.767 98.0892 174.358 98.1629C173.948 98.2366 173.543 98.3021 173.141 98.3594C172.74 98.4168 172.392 98.4659 172.097 98.5069C171.434 98.5969 170.84 98.7443 170.316 98.9491C169.792 99.1538 169.378 99.4404 169.075 99.809C168.772 100.169 168.621 100.636 168.621 101.209C168.621 102.028 168.92 102.647 169.518 103.064C170.115 103.482 170.877 103.691 171.802 103.691Z" fill="black"/>
</svg>
