<svg width="459" height="73" viewBox="0 0 459 73" fill="none" xmlns="http://www.w3.org/2000/svg">
<path d="M0 56.6078V2.11951H20.4331C24.6191 2.11951 28.131 2.89994 30.9689 4.4608C33.8246 6.02166 35.9797 8.16785 37.4341 10.8994C38.9063 13.6131 39.6424 16.6994 39.6424 20.1581C39.6424 23.6523 38.9063 26.7563 37.4341 29.4701C35.9619 32.1839 33.7891 34.3212 30.9157 35.882C28.0423 37.4252 24.5038 38.1967 20.3001 38.1967H6.75783V30.082H18.9698C21.4175 30.082 23.4218 29.6563 24.9827 28.8049C26.5435 27.9536 27.6964 26.7829 28.4414 25.293C29.2041 23.8031 29.5854 22.0915 29.5854 20.1581C29.5854 18.2248 29.2041 16.522 28.4414 15.0498C27.6964 13.5777 26.5347 12.4336 24.9561 11.6177C23.3952 10.7841 21.382 10.3672 18.9166 10.3672H9.87068V50.4018C9.87068 53.8293 7.09214 56.6078 3.66463 56.6078H0Z" fill="white"/>
<path d="M70.0912 39.4206V25.3728C70.0912 20.0536 74.4032 15.7416 79.7224 15.7416V50.4018C79.7224 53.8293 76.9438 56.6078 73.5163 56.6078H70.3838V49.3445H69.9581C69.0358 51.6326 67.5193 53.5038 65.4086 54.9583C63.3156 56.4127 60.7349 57.1399 57.6663 57.1399C54.988 57.1399 52.6201 56.5457 50.5626 55.3573C48.5229 54.1512 46.9265 52.4041 45.7736 50.116C44.6207 47.8102 44.0443 45.0255 44.0443 41.7619V25.3728C44.0443 20.0536 48.3563 15.7416 53.6755 15.7416V40.272C53.6755 42.8616 54.385 44.9191 55.8039 46.4445C57.2229 47.9698 59.0853 48.7325 61.3911 48.7325C62.8101 48.7325 64.1847 48.3867 65.515 47.6949C66.8453 47.0032 67.9361 45.9744 68.7875 44.6087C69.6566 43.2252 70.0912 41.4958 70.0912 39.4206Z" fill="white"/>
<path d="M85.8803 56.6078V25.0802C85.8803 19.9226 90.0613 15.7416 95.2188 15.7416V22.5526H95.6445C96.3895 20.1936 97.6666 18.3755 99.4757 17.0985C101.303 15.8037 103.387 15.1563 105.728 15.1563C106.26 15.1563 106.854 15.1829 107.511 15.2361C108.185 15.2715 108.743 15.3336 109.187 15.4223V24.282C108.779 24.1401 108.131 24.0159 107.245 23.9095C106.375 23.7853 105.533 23.7233 104.717 23.7233C102.961 23.7233 101.382 24.1046 99.9812 24.8673C98.5977 25.6123 97.5069 26.6499 96.7088 27.9802C95.9106 29.3104 95.5115 30.8447 95.5115 32.5829V50.4017C95.5115 53.8293 92.733 56.6078 89.3055 56.6078H85.8803Z" fill="white"/>
<path d="M122.867 57.4326C120.278 57.4326 117.945 56.9714 115.87 56.0491C113.813 55.109 112.181 53.7255 110.975 51.8986C109.786 50.0717 109.192 47.8191 109.192 45.1408C109.192 42.835 109.618 40.9282 110.469 39.4206C111.321 37.9129 112.482 36.7068 113.955 35.8022C115.427 34.8976 117.085 34.2147 118.93 33.7536C120.792 33.2747 122.717 32.9288 124.703 32.716C127.098 32.4676 129.04 32.2459 130.53 32.0508C132.02 31.838 133.102 31.5187 133.776 31.093C134.467 30.6496 134.813 29.9667 134.813 29.0444V28.8848C134.813 26.8805 134.219 25.3285 133.031 24.2288C131.842 23.1291 130.131 22.5792 127.896 22.5792C125.537 22.5792 123.666 23.0936 122.282 24.1224C120.916 25.1511 119.994 26.3661 119.515 27.7673L110.522 26.4903C111.232 24.0071 112.403 21.9318 114.034 20.2645C115.666 18.5795 117.662 17.3202 120.021 16.4865C122.38 15.6352 124.987 15.2095 127.843 15.2095C129.811 15.2095 131.771 15.4401 133.722 15.9012C135.674 16.3624 137.456 17.1251 139.07 18.1893C140.684 19.2358 141.979 20.6636 142.955 22.4728C143.948 24.282 144.445 26.5435 144.445 29.2572V50.4018C144.445 53.8293 141.666 56.6078 138.238 56.6078H135.186V50.994H134.867C134.281 52.1292 133.456 53.1934 132.392 54.1867C131.346 55.1622 130.024 55.9515 128.428 56.5546C126.849 57.1399 124.996 57.4326 122.867 57.4326ZM125.368 50.3555C127.302 50.3555 128.978 49.9741 130.397 49.2114C131.816 48.431 132.907 47.4023 133.669 46.1252C134.45 44.8481 134.84 43.4558 134.84 41.9481V37.1325C134.538 37.3808 134.024 37.6114 133.297 37.8242C132.587 38.0371 131.789 38.2233 130.902 38.383C130.015 38.5426 129.137 38.6845 128.268 38.8087C127.399 38.9328 126.645 39.0392 126.007 39.1279C124.57 39.323 123.284 39.6423 122.149 40.0857C121.014 40.5291 120.118 41.1499 119.462 41.9481C118.806 42.7285 118.477 43.7396 118.477 44.9812C118.477 46.7549 119.125 48.094 120.42 48.9986C121.714 49.9032 123.364 50.3555 125.368 50.3555Z" fill="white"/>
<path d="M186.338 4.10522C192.982 2.47232 198.713 3.441 202.264 6.99194C205.815 10.5429 206.783 16.274 205.151 22.9177C203.524 29.5374 199.346 36.857 192.953 43.2498C186.561 49.6426 179.241 53.82 172.621 55.447C165.978 57.0799 160.246 56.1113 156.695 52.5603C153.145 49.0093 152.176 43.2782 153.809 36.6345C155.436 30.0149 159.614 22.6963 166.007 16.3035C172.4 9.91067 179.718 5.73228 186.338 4.10522Z" stroke="white" stroke-width="2.29749"/>
<path d="M156.696 6.99207C160.247 3.44111 165.978 2.47245 172.622 4.10535C179.241 5.7324 186.561 9.91079 192.954 16.3036C199.346 22.6963 203.524 30.0151 205.151 36.6346C206.784 43.2784 205.815 49.0095 202.264 52.5604C198.713 56.1114 192.982 57.0801 186.338 55.4471C179.719 53.8201 172.4 49.6424 166.007 43.2499C159.614 36.8571 155.436 29.5375 153.809 22.9178C152.176 16.2741 153.145 10.543 156.696 6.99207Z" stroke="white" stroke-width="2.29749"/>
<rect x="178.53" y="22.9547" width="2.66622" height="14.0152" fill="white"/>
<rect x="169.153" y="31.3341" width="2.66622" height="11.2718" transform="rotate(-60 169.153 31.3341)" fill="white"/>
<rect x="172.848" y="26.2688" width="2.66622" height="11.2718" transform="rotate(-30 172.848 26.2688)" fill="white"/>
<rect width="2.66622" height="11.2718" transform="matrix(-0.5 -0.866025 -0.866025 0.5 190.973 31.3341)" fill="white"/>
<rect width="2.66622" height="11.2718" transform="matrix(-0.866025 -0.5 -0.5 0.866025 187.278 26.2688)" fill="white"/>
<rect x="190.973" y="34.6974" width="2.66622" height="22.2208" transform="rotate(90 190.973 34.6974)" fill="white"/>
<path d="M214.488 10.9083C214.488 6.33851 218.192 2.63396 222.762 2.63396H257.961C257.961 7.20375 254.257 10.9083 249.687 10.9083H241.12V47.3314C241.12 52.7387 236.737 57.1223 231.329 57.1223V10.9083H214.488Z" fill="white"/>
<path d="M274.336 57.9204C270.239 57.9204 266.7 57.069 263.72 55.3663C260.758 53.6458 258.479 51.2158 256.883 48.0763C255.286 44.9191 254.488 41.2032 254.488 36.9286C254.488 32.7249 255.286 29.0356 256.883 25.8607C258.497 22.668 260.749 20.1848 263.64 18.4111C266.532 16.6196 269.928 15.7239 273.83 15.7239C276.349 15.7239 278.726 16.1319 280.961 16.9478C283.213 17.7459 285.2 18.9875 286.92 20.6726C288.659 22.3576 290.024 24.5038 291.018 27.1111C292.011 29.7007 292.507 32.787 292.507 36.3699V39.3231H259.011V32.8313H283.275C283.258 30.9867 282.859 29.346 282.078 27.9093C281.298 26.4549 280.207 25.3108 278.806 24.4772C277.422 23.6435 275.808 23.2267 273.963 23.2267C271.995 23.2267 270.265 23.7056 268.775 24.6634C267.285 25.6035 266.124 26.8451 265.29 28.3882C264.474 29.9136 264.057 31.5897 264.039 33.4167V39.0836C264.039 41.4604 264.474 43.5002 265.343 45.2029C266.212 46.888 267.427 48.1828 268.988 49.0874C270.549 49.9742 272.376 50.4176 274.469 50.4176C275.87 50.4176 277.138 50.2225 278.273 49.8323C279.409 49.4244 280.393 48.8302 281.227 48.0497C282.06 47.2693 282.69 46.3026 283.116 45.1497L292.108 46.1607C291.541 48.5375 290.459 50.6127 288.863 52.3865C287.284 54.1424 285.262 55.5082 282.796 56.4837C280.331 57.4415 277.511 57.9204 274.336 57.9204Z" fill="white"/>
<path d="M296.909 57.1223V25.5946C296.909 20.4371 301.09 16.256 306.248 16.256V23.0671H306.674C307.419 20.708 308.696 18.89 310.505 17.6129C312.332 16.3181 314.416 15.6707 316.757 15.6707C317.289 15.6707 317.883 15.6973 318.54 15.7505C319.214 15.786 319.772 15.8481 320.216 15.9368V22.8156C320.216 23.7845 319.236 24.5394 318.274 24.424C317.405 24.2998 316.562 24.2377 315.746 24.2377C313.99 24.2377 312.412 24.6191 311.01 25.3818C309.627 26.1267 308.536 27.1643 307.738 28.4946C306.94 29.8249 306.541 31.3592 306.541 33.0974V47.491C306.541 52.8102 302.229 57.1223 296.909 57.1223Z" fill="white"/>
<path d="M333.897 57.947C331.307 57.947 328.974 57.4859 326.899 56.5635C324.842 55.6235 323.21 54.24 322.004 52.4131C320.815 50.5861 320.221 48.3335 320.221 45.6552C320.221 43.3494 320.647 41.4427 321.498 39.935C322.35 38.4274 323.511 37.2213 324.984 36.3167C326.456 35.4121 328.114 34.7292 329.959 34.268C331.821 33.7891 333.746 33.4433 335.732 33.2304C338.127 32.9821 340.069 32.7604 341.559 32.5653C343.049 32.3524 344.131 32.0332 344.805 31.6075C345.497 31.164 345.842 30.4812 345.842 29.5588V29.3992C345.842 27.3949 345.248 25.8429 344.06 24.7432C342.871 23.6435 341.16 23.0937 338.925 23.0937C336.566 23.0937 334.695 23.608 333.311 24.6368C331.945 25.6655 331.023 26.8805 330.544 28.2818L321.552 27.0047C322.261 24.5215 323.432 22.4463 325.063 20.779C326.695 19.094 328.691 17.8346 331.05 17.001C333.409 16.1496 336.016 15.7239 338.872 15.7239C340.841 15.7239 342.801 15.9545 344.752 16.4157C346.703 16.8768 348.485 17.6395 350.099 18.7037C351.713 19.7502 353.008 21.1781 353.984 22.9873C354.977 24.7964 355.474 27.0579 355.474 29.7717V47.8635C355.474 52.977 351.328 57.1223 346.215 57.1223V51.5085H345.896C345.31 52.6436 344.486 53.7079 343.421 54.7011C342.375 55.6767 341.053 56.466 339.457 57.069C337.878 57.6544 336.025 57.947 333.897 57.947ZM336.397 50.8699C338.331 50.8699 340.007 50.4886 341.426 49.7259C342.845 48.9455 343.936 47.9167 344.698 46.6396C345.479 45.3626 345.869 43.9702 345.869 42.4626V37.6469C345.568 37.8953 345.053 38.1258 344.326 38.3387C343.616 38.5515 342.818 38.7378 341.931 38.8974C341.045 39.057 340.167 39.1989 339.297 39.3231C338.428 39.4473 337.675 39.5537 337.036 39.6424C335.599 39.8375 334.313 40.1567 333.178 40.6002C332.043 41.0436 331.147 41.6644 330.491 42.4626C329.835 43.243 329.507 44.254 329.507 45.4956C329.507 47.2693 330.154 48.6085 331.449 49.5131C332.744 50.4176 334.393 50.8699 336.397 50.8699Z" fill="white"/>
<path d="M361.412 72.4471V25.7276C361.412 20.4966 365.653 16.256 370.884 16.256V23.0139H371.442C371.939 22.0206 372.64 20.9652 373.544 19.8478C374.449 18.7126 375.673 17.7459 377.216 16.9478C378.759 16.1319 380.728 15.7239 383.122 15.7239C386.279 15.7239 389.126 16.531 391.663 18.145C394.217 19.7414 396.239 22.1093 397.729 25.2487C399.236 28.3705 399.99 32.2017 399.99 36.7424C399.99 41.2298 399.254 45.0433 397.782 48.1828C396.31 51.3222 394.305 53.7167 391.769 55.3663C389.233 57.0158 386.359 57.8406 383.149 57.8406C380.808 57.8406 378.865 57.4504 377.322 56.67C375.779 55.8895 374.537 54.9495 373.597 53.8498C372.675 52.7323 371.957 51.677 371.442 50.6837H371.043V62.8158C371.043 68.135 366.731 72.4471 361.412 72.4471ZM370.857 36.6891C370.857 39.332 371.23 41.6467 371.974 43.6332C372.737 45.6198 373.828 47.1718 375.247 48.2892C376.684 49.3889 378.422 49.9387 380.462 49.9387C382.59 49.9387 384.373 49.3712 385.809 48.236C387.246 47.0831 388.328 45.5133 389.055 43.5268C389.8 41.5225 390.173 39.2433 390.173 36.6891C390.173 34.1527 389.809 31.9001 389.082 29.9313C388.355 27.9625 387.273 26.4194 385.836 25.3019C384.399 24.1845 382.608 23.6258 380.462 23.6258C378.404 23.6258 376.657 24.1668 375.22 25.2487C373.784 26.3307 372.693 27.8472 371.948 29.7983C371.221 31.7494 370.857 34.0463 370.857 36.6891Z" fill="white"/>
<path d="M404.492 57.1223V25.8873C404.492 20.5681 408.804 16.256 414.123 16.256V47.491C414.123 52.8102 409.811 57.1223 404.492 57.1223ZM409.334 10.456C407.809 10.456 406.496 9.9505 405.396 8.93949C404.297 7.91073 403.747 6.67801 403.747 5.24131C403.747 3.78687 404.297 2.55414 405.396 1.54312C406.496 0.514375 407.809 0 409.334 0C410.877 0 412.19 0.514375 413.272 1.54312C414.371 2.55414 414.921 3.78687 414.921 5.24131C414.921 6.67801 414.371 7.91073 413.272 8.93949C412.19 9.9505 410.877 10.456 409.334 10.456Z" fill="white"/>
<path d="M432.041 57.947C429.451 57.947 427.119 57.4859 425.043 56.5635C422.986 55.6235 421.354 54.24 420.148 52.4131C418.96 50.5861 418.365 48.3335 418.365 45.6552C418.365 43.3494 418.791 41.4427 419.642 39.935C420.494 38.4274 421.656 37.2213 423.128 36.3167C424.6 35.4121 426.258 34.7292 428.103 34.268C429.965 33.7891 431.89 33.4433 433.876 33.2304C436.271 32.9821 438.213 32.7604 439.703 32.5653C441.193 32.3524 442.275 32.0332 442.949 31.6075C443.641 31.164 443.987 30.4812 443.987 29.5588V29.3992C443.987 27.3949 443.392 25.8429 442.204 24.7432C441.016 23.6435 439.304 23.0937 437.069 23.0937C434.71 23.0937 432.839 23.608 431.455 24.6368C430.09 25.6655 429.167 26.8805 428.688 28.2818L419.696 27.0047C420.405 24.5215 421.576 22.4463 423.208 20.779C424.839 19.094 426.835 17.8346 429.194 17.001C431.553 16.1496 434.16 15.7239 437.016 15.7239C438.985 15.7239 440.945 15.9545 442.896 16.4157C444.847 16.8768 446.629 17.6395 448.243 18.7037C449.858 19.7502 451.152 21.1781 452.128 22.9873C453.121 24.7964 453.618 27.0579 453.618 29.7717V47.8635C453.618 52.977 449.472 57.1223 444.359 57.1223V51.5085H444.04C443.454 52.6436 442.63 53.7079 441.565 54.7011C440.519 55.6767 439.198 56.466 437.601 57.069C436.023 57.6544 434.169 57.947 432.041 57.947ZM434.542 50.8699C436.475 50.8699 438.151 50.4886 439.57 49.7259C440.989 48.9455 442.08 47.9167 442.843 46.6396C443.623 45.3626 444.013 43.9702 444.013 42.4626V37.6469C443.712 37.8953 443.197 38.1258 442.47 38.3387C441.761 38.5515 440.962 38.7378 440.076 38.8974C439.189 39.057 438.311 39.1989 437.442 39.3231C436.572 39.4473 435.819 39.5537 435.18 39.6424C433.743 39.8375 432.457 40.1567 431.322 40.6002C430.187 41.0436 429.291 41.6644 428.635 42.4626C427.979 43.243 427.651 44.254 427.651 45.4956C427.651 47.2693 428.298 48.6085 429.593 49.5131C430.888 50.4176 432.537 50.8699 434.542 50.8699Z" fill="white"/>
</svg>
