<svg width="425" height="73" viewBox="0 0 425 73" fill="none" xmlns="http://www.w3.org/2000/svg">
<path d="M0 56.6926V2.17359H35.4587V10.4526H9.87625V25.2537H33.6218V33.5327H9.87625V48.4136H35.6716V56.6926H0Z" fill="white"/>
<path d="M59.1963 57.4912C55.1144 57.4912 51.6094 56.595 48.6811 54.8026C45.7706 53.0101 43.5256 50.5344 41.9461 47.3754C40.3844 44.1987 39.6035 40.5428 39.6035 36.4077C39.6035 32.2549 40.4021 28.5901 41.9994 25.4134C43.5966 22.2189 45.8505 19.7343 48.761 17.9596C51.6893 16.1672 55.1499 15.2709 59.143 15.2709C62.4617 15.2709 65.3989 15.8832 67.9545 17.1078C70.5278 18.3146 72.5776 20.0272 74.1038 22.2455C75.6301 24.4462 76.4997 27.0195 76.7126 29.9655H67.5019C67.1292 27.9956 66.2419 26.354 64.8398 25.0407C63.4556 23.7097 61.601 23.0442 59.2761 23.0442C57.3062 23.0442 55.5759 23.5766 54.0851 24.6414C52.5944 25.6885 51.4319 27.197 50.5978 29.1669C49.7814 31.1368 49.3733 33.4972 49.3733 36.248C49.3733 39.0343 49.7814 41.4301 50.5978 43.4356C51.4142 45.4232 52.5589 46.9583 54.0319 48.0409C55.5226 49.1057 57.2707 49.6382 59.2761 49.6382C60.6959 49.6382 61.9648 49.3719 63.0829 48.8395C64.2187 48.2894 65.1682 47.4996 65.9313 46.4703C66.6944 45.441 67.218 44.1898 67.5019 42.7168H76.7126C76.4819 45.6096 75.6301 48.174 74.1571 50.4102C72.6841 52.6285 70.6786 54.3678 68.1408 55.6278C65.603 56.8701 62.6215 57.4912 59.1963 57.4912Z" fill="white"/>
<path d="M98.7133 57.4912C94.7202 57.4912 91.2595 56.6128 88.3312 54.8558C85.4029 53.0988 83.1313 50.6409 81.5163 47.4819C79.9191 44.3229 79.1205 40.6315 79.1205 36.4077C79.1205 32.1839 79.9191 28.4836 81.5163 25.3069C83.1313 22.1302 85.4029 19.6633 88.3312 17.9064C91.2595 16.1494 94.7202 15.2709 98.7133 15.2709C102.706 15.2709 106.167 16.1494 109.095 17.9064C112.024 19.6633 114.286 22.1302 115.884 25.3069C117.499 28.4836 118.306 32.1839 118.306 36.4077C118.306 40.6315 117.499 44.3229 115.884 47.4819C114.286 50.6409 112.024 53.0988 109.095 54.8558C106.167 56.6128 102.706 57.4912 98.7133 57.4912ZM98.7665 49.7713C100.932 49.7713 102.742 49.1767 104.197 47.9877C105.652 46.7809 106.735 45.1659 107.445 43.1427C108.172 41.1196 108.536 38.8657 108.536 36.3811C108.536 33.8787 108.172 31.616 107.445 29.5928C106.735 27.5519 105.652 25.9281 104.197 24.7213C102.742 23.5145 100.932 22.9111 98.7665 22.9111C96.5481 22.9111 94.7024 23.5145 93.2294 24.7213C91.7741 25.9281 90.6827 27.5519 89.9551 29.5928C89.2452 31.616 88.8902 33.8787 88.8902 36.3811C88.8902 38.8657 89.2452 41.1196 89.9551 43.1427C90.6827 45.1659 91.7741 46.7809 93.2294 47.9877C94.7024 49.1767 96.5481 49.7713 98.7665 49.7713Z" fill="white"/>
<path d="M154.945 4.14711C161.593 2.51328 167.327 3.48251 170.88 7.03546C174.433 10.5884 175.402 16.3228 173.768 22.9702C172.14 29.5936 167.96 36.9173 161.564 43.3137C155.168 49.7101 147.844 53.8899 141.221 55.5179C134.573 57.1517 128.839 56.1825 125.286 52.6295C121.733 49.0765 120.764 43.3422 122.397 36.6948C124.025 30.0714 128.206 22.7486 134.603 16.3522C140.999 9.95583 148.322 5.77508 154.945 4.14711Z" stroke="white" stroke-width="2.29749"/>
<path d="M125.286 7.03546C128.839 3.4825 134.573 2.5133 141.221 4.14711C147.844 5.77508 155.168 9.95583 161.564 16.3522C167.96 22.7485 172.14 30.0715 173.768 36.6948C175.402 43.3422 174.433 49.0765 170.88 52.6295C167.327 56.1825 161.593 57.1517 154.945 55.5179C148.322 53.8899 140.999 49.7099 134.603 43.3137C128.206 36.9173 124.026 29.5936 122.398 22.9702C120.764 16.3228 121.733 10.5884 125.286 7.03546Z" stroke="white" stroke-width="2.29749"/>
<rect x="146.75" y="22.6238" width="2.66772" height="14.0231" fill="white"/>
<rect x="137.367" y="31.008" width="2.66772" height="11.2781" transform="rotate(-60 137.367 31.008)" fill="white"/>
<rect x="141.064" y="25.9399" width="2.66772" height="11.2781" transform="rotate(-30 141.064 25.9399)" fill="white"/>
<rect width="2.66622" height="11.2718" transform="matrix(-0.500282 -0.866514 -0.866514 0.500282 159.2 31.008)" fill="white"/>
<rect width="2.66622" height="11.2718" transform="matrix(-0.866514 -0.500282 -0.500282 0.866514 155.502 25.9399)" fill="white"/>
<rect x="159.2" y="34.3731" width="2.66772" height="22.2334" transform="rotate(90 159.2 34.3731)" fill="white"/>
<path d="M180.841 10.9145C180.841 6.34208 184.548 2.63544 189.12 2.63544H224.339C224.339 7.20782 220.633 10.9145 216.06 10.9145H207.489V47.3581C207.489 52.7685 203.103 57.1545 197.692 57.1545V10.9145H180.841Z" fill="white"/>
<path d="M240.723 57.9531C236.623 57.9531 233.083 57.1012 230.101 55.3975C227.138 53.676 224.857 51.2447 223.26 48.1035C221.663 44.9445 220.864 41.2265 220.864 36.9494C220.864 32.7434 221.663 29.052 223.26 25.8752C224.875 22.6808 227.129 20.1962 230.022 18.4215C232.914 16.629 236.313 15.7328 240.217 15.7328C242.737 15.7328 245.115 16.141 247.352 16.9573C249.605 17.756 251.593 18.9983 253.315 20.6842C255.054 22.3702 256.42 24.5176 257.414 27.1264C258.408 29.7175 258.905 32.8055 258.905 36.3904V39.3453H225.39V32.8498H249.668C249.65 31.0041 249.251 29.3625 248.47 27.925C247.689 26.4698 246.597 25.3251 245.195 24.491C243.811 23.6569 242.196 23.2398 240.35 23.2398C238.38 23.2398 236.65 23.719 235.159 24.6773C233.669 25.6179 232.506 26.8602 231.672 28.4042C230.856 29.9305 230.439 31.6075 230.421 33.4355V39.1057C230.421 41.4838 230.856 43.5247 231.725 45.2284C232.595 46.9144 233.811 48.2099 235.372 49.115C236.934 50.0024 238.762 50.4461 240.856 50.4461C242.258 50.4461 243.527 50.2509 244.663 49.8604C245.799 49.4522 246.784 48.8577 247.618 48.0768C248.452 47.296 249.082 46.3288 249.508 45.1752L258.506 46.1868C257.938 48.5649 256.855 50.6413 255.258 52.416C253.678 54.173 251.655 55.5395 249.188 56.5156C246.722 57.4739 243.9 57.9531 240.723 57.9531Z" fill="white"/>
<path d="M263.309 57.1545V25.609C263.309 20.4486 267.493 16.2652 272.653 16.2652V23.0801H273.079C273.824 20.7197 275.102 18.9006 276.912 17.6229C278.74 16.3273 280.826 15.6795 283.168 15.6795C283.701 15.6795 284.295 15.7062 284.952 15.7594C285.626 15.7949 286.185 15.857 286.629 15.9458V22.8285C286.629 23.7979 285.648 24.5532 284.686 24.4377C283.816 24.3135 282.973 24.2514 282.157 24.2514C280.4 24.2514 278.82 24.6329 277.418 25.3961C276.034 26.1414 274.943 27.1797 274.144 28.5107C273.345 29.8417 272.946 31.3768 272.946 33.1161V47.5178C272.946 52.84 268.632 57.1545 263.309 57.1545Z" fill="white"/>
<path d="M300.317 57.9797C297.726 57.9797 295.393 57.5183 293.316 56.5954C291.257 55.6548 289.625 54.2706 288.418 52.4426C287.229 50.6147 286.634 48.3608 286.634 45.681C286.634 43.3739 287.06 41.4661 287.912 39.9576C288.764 38.449 289.926 37.2422 291.399 36.3371C292.872 35.432 294.532 34.7488 296.377 34.2874C298.241 33.8082 300.166 33.4621 302.154 33.2492C304.55 33.0007 306.493 32.7789 307.984 32.5836C309.475 32.3707 310.557 32.0512 311.232 31.6253C311.924 31.1816 312.27 30.4984 312.27 29.5755V29.4158C312.27 27.4104 311.675 25.8575 310.486 24.7572C309.297 23.6569 307.585 23.1067 305.349 23.1067C302.988 23.1067 301.116 23.6214 299.732 24.6507C298.365 25.68 297.442 26.8957 296.963 28.2977L287.965 27.0199C288.675 24.5353 289.847 22.4589 291.479 20.7907C293.112 19.1047 295.109 17.8447 297.469 17.0106C299.829 16.1587 302.438 15.7328 305.295 15.7328C307.265 15.7328 309.226 15.9635 311.179 16.4249C313.131 16.8863 314.914 17.6495 316.529 18.7143C318.144 19.7614 319.44 21.19 320.416 23.0002C321.41 24.8104 321.907 27.0732 321.907 29.7885V47.8905C321.907 53.0068 317.759 57.1545 312.643 57.1545V51.5375H312.323C311.738 52.6733 310.912 53.7382 309.848 54.732C308.8 55.7081 307.478 56.4978 305.881 57.1012C304.302 57.6869 302.447 57.9797 300.317 57.9797ZM302.82 50.8986C304.754 50.8986 306.431 50.5171 307.851 49.7539C309.271 48.9731 310.362 47.9437 311.125 46.6659C311.906 45.3882 312.297 43.995 312.297 42.4865V37.6682C311.995 37.9166 311.48 38.1473 310.753 38.3603C310.043 38.5733 309.244 38.7596 308.357 38.9193C307.469 39.0791 306.591 39.221 305.721 39.3453C304.852 39.4695 304.097 39.576 303.459 39.6647C302.021 39.8599 300.734 40.1794 299.599 40.6231C298.463 41.0667 297.567 41.6879 296.91 42.4865C296.253 43.2674 295.925 44.279 295.925 45.5213C295.925 47.296 296.573 48.6359 297.868 49.541C299.164 50.4461 300.814 50.8986 302.82 50.8986Z" fill="white"/>
<path d="M327.848 72.4879V25.7421C327.848 20.5082 332.091 16.2652 337.325 16.2652V23.0268H337.884C338.381 22.033 339.082 20.977 339.987 19.859C340.892 18.7232 342.117 17.756 343.661 16.9573C345.205 16.141 347.175 15.7328 349.571 15.7328C352.73 15.7328 355.578 16.5403 358.116 18.1553C360.672 19.7525 362.695 22.1217 364.186 25.263C365.694 28.3865 366.448 32.2198 366.448 36.7631C366.448 41.2531 365.712 45.0687 364.239 48.2099C362.766 51.3512 360.76 53.747 358.223 55.3975C355.685 57.048 352.81 57.8732 349.597 57.8732C347.255 57.8732 345.311 57.4828 343.768 56.7019C342.223 55.9211 340.981 54.9805 340.041 53.8801C339.118 52.7621 338.399 51.7061 337.884 50.7123H337.485V62.8513C337.485 68.1735 333.171 72.4879 327.848 72.4879ZM337.299 36.7098C337.299 39.3541 337.671 41.6701 338.417 43.6578C339.18 45.6455 340.271 47.1984 341.691 48.3164C343.129 49.4167 344.868 49.9669 346.909 49.9669C349.038 49.9669 350.822 49.399 352.259 48.2632C353.697 47.1096 354.78 45.539 355.507 43.5513C356.253 41.5459 356.625 39.2654 356.625 36.7098C356.625 34.172 356.261 31.9181 355.534 29.9482C354.806 27.9783 353.724 26.4343 352.286 25.3162C350.849 24.1981 349.056 23.6391 346.909 23.6391C344.85 23.6391 343.102 24.1804 341.664 25.263C340.227 26.3455 339.136 27.8629 338.39 29.8151C337.663 31.7673 337.299 34.0655 337.299 36.7098Z" fill="white"/>
<path d="M370.952 57.1545V25.9019C370.952 20.5797 375.267 16.2652 380.589 16.2652V47.5178C380.589 52.84 376.275 57.1545 370.952 57.1545ZM375.797 10.4619C374.271 10.4619 372.958 9.95611 371.858 8.94453C370.757 7.9152 370.207 6.68177 370.207 5.24426C370.207 3.789 370.757 2.55558 371.858 1.54399C372.958 0.514665 374.271 0 375.797 0C377.341 0 378.655 0.514665 379.737 1.54399C380.838 2.55558 381.388 3.789 381.388 5.24426C381.388 6.68177 380.838 7.9152 379.737 8.94453C378.655 9.95611 377.341 10.4619 375.797 10.4619Z" fill="white"/>
<path d="M398.517 57.9797C395.926 57.9797 393.592 57.5183 391.516 56.5954C389.457 55.6548 387.824 54.2706 386.617 52.4426C385.428 50.6147 384.834 48.3608 384.834 45.681C384.834 43.3739 385.26 41.4661 386.112 39.9576C386.963 38.449 388.126 37.2422 389.599 36.3371C391.072 35.432 392.731 34.7488 394.577 34.2874C396.44 33.8082 398.366 33.4621 400.354 33.2492C402.749 33.0007 404.693 32.7789 406.184 32.5836C407.674 32.3707 408.757 32.0512 409.431 31.6253C410.123 31.1816 410.469 30.4984 410.469 29.5755V29.4158C410.469 27.4104 409.875 25.8575 408.686 24.7572C407.497 23.6569 405.784 23.1067 403.548 23.1067C401.188 23.1067 399.315 23.6214 397.931 24.6507C396.565 25.68 395.642 26.8957 395.163 28.2977L386.165 27.0199C386.875 24.5353 388.046 22.4589 389.679 20.7907C391.311 19.1047 393.308 17.8447 395.668 17.0106C398.029 16.1587 400.638 15.7328 403.495 15.7328C405.465 15.7328 407.426 15.9635 409.378 16.4249C411.33 16.8863 413.114 17.6495 414.729 18.7143C416.344 19.7614 417.639 21.19 418.615 23.0002C419.609 24.8104 420.106 27.0732 420.106 29.7885V47.8905C420.106 53.0068 415.958 57.1545 410.842 57.1545V51.5375H410.523C409.937 52.6733 409.112 53.7382 408.047 54.732C407 55.7081 405.678 56.4978 404.08 57.1012C402.501 57.6869 400.646 57.9797 398.517 57.9797ZM401.019 50.8986C402.954 50.8986 404.631 50.5171 406.05 49.7539C407.47 48.9731 408.562 47.9437 409.325 46.6659C410.106 45.3882 410.496 43.995 410.496 42.4865V37.6682C410.194 37.9166 409.68 38.1473 408.952 38.3603C408.242 38.5733 407.444 38.7596 406.556 38.9193C405.669 39.0791 404.79 39.221 403.921 39.3453C403.051 39.4695 402.297 39.576 401.658 39.6647C400.22 39.8599 398.934 40.1794 397.798 40.6231C396.662 41.0667 395.766 41.6879 395.109 42.4865C394.453 43.2674 394.124 44.279 394.124 45.5213C394.124 47.296 394.772 48.6359 396.068 49.541C397.363 50.4461 399.014 50.8986 401.019 50.8986Z" fill="white"/>
</svg>
