<svg width="173" height="29" viewBox="0 0 173 29" fill="none" xmlns="http://www.w3.org/2000/svg">
<path d="M0 22.6027V0.866358H14.1371V4.16713H3.93758V10.0682H13.4048V13.369H3.93758V19.3019H14.222V22.6027H0Z" fill="#00160A"/>
<path d="M23.6011 22.9211C21.9737 22.9211 20.5763 22.5637 19.4088 21.8491C18.2484 21.1345 17.3533 20.1474 16.7236 18.888C16.1009 17.6214 15.7896 16.1638 15.7896 14.5152C15.7896 12.8595 16.108 11.3984 16.7448 10.1319C17.3816 8.85827 18.2802 7.86768 19.4406 7.16012C20.6081 6.44548 21.9878 6.08816 23.5799 6.08816C24.903 6.08816 26.074 6.33227 27.0929 6.82049C28.1189 7.30163 28.9361 7.98443 29.5446 8.86888C30.1531 9.74626 30.4998 10.7722 30.5847 11.9468H26.9125C26.7639 11.1614 26.4101 10.5069 25.8511 9.98329C25.2992 9.45262 24.5598 9.18728 23.6329 9.18728C22.8475 9.18728 22.1577 9.39955 21.5633 9.82409C20.9689 10.2416 20.5055 10.843 20.1729 11.6284C19.8475 12.4138 19.6847 13.3548 19.6847 14.4515C19.6847 15.5624 19.8475 16.5176 20.1729 17.3172C20.4984 18.1096 20.9548 18.7217 21.5421 19.1533C22.1364 19.5778 22.8334 19.7901 23.6329 19.7901C24.199 19.7901 24.7049 19.684 25.1506 19.4717C25.6035 19.2524 25.982 18.9375 26.2863 18.5271C26.5905 18.1167 26.7993 17.6179 26.9125 17.0306H30.5847C30.4927 18.1839 30.1531 19.2064 29.5658 20.0979C28.9785 20.9823 28.179 21.6758 27.1672 22.1781C26.1554 22.6734 24.9667 22.9211 23.6011 22.9211Z" fill="#00160A"/>
<path d="M39.3562 22.9211C37.7642 22.9211 36.3844 22.5708 35.2169 21.8703C34.0495 21.1698 33.1438 20.1899 32.4999 18.9304C31.8631 17.671 31.5447 16.1992 31.5447 14.5152C31.5447 12.8312 31.8631 11.356 32.4999 10.0894C33.1438 8.82289 34.0495 7.83938 35.2169 7.13889C36.3844 6.43841 37.7642 6.08816 39.3562 6.08816C40.9482 6.08816 42.3279 6.43841 43.4954 7.13889C44.6629 7.83938 45.565 8.82289 46.2018 10.0894C46.8457 11.356 47.1677 12.8312 47.1677 14.5152C47.1677 16.1992 46.8457 17.671 46.2018 18.9304C45.565 20.1899 44.6629 21.1698 43.4954 21.8703C42.3279 22.5708 40.9482 22.9211 39.3562 22.9211ZM39.3774 19.8432C40.2406 19.8432 40.9623 19.6061 41.5425 19.1321C42.1227 18.6509 42.5544 18.007 42.8374 17.2004C43.1275 16.3938 43.2725 15.4952 43.2725 14.5046C43.2725 13.5069 43.1275 12.6048 42.8374 11.7982C42.5544 10.9845 42.1227 10.3371 41.5425 9.85593C40.9623 9.37479 40.2406 9.13422 39.3774 9.13422C38.493 9.13422 37.7571 9.37479 37.1698 9.85593C36.5896 10.3371 36.1545 10.9845 35.8644 11.7982C35.5813 12.6048 35.4398 13.5069 35.4398 14.5046C35.4398 15.4952 35.5813 16.3938 35.8644 17.2004C36.1545 18.007 36.5896 18.6509 37.1698 19.1321C37.7571 19.6061 38.493 19.8432 39.3774 19.8432Z" fill="#00160A"/>
<path d="M61.7755 1.65347C64.4258 1.0021 66.7117 1.3885 68.1282 2.80502C69.5447 4.22156 69.9311 6.5074 69.2797 9.15766C68.6307 11.7984 66.9644 14.7183 64.4142 17.2684C61.864 19.8186 58.9441 21.4849 56.3035 22.1339C53.6532 22.7853 51.3674 22.3989 49.9508 20.9824C48.5343 19.5659 48.1479 17.28 48.7993 14.6298C49.4483 11.9891 51.1146 9.06916 53.6648 6.51896C56.215 3.96877 59.1349 2.30252 61.7755 1.65347Z" stroke="#00160A" stroke-width="0.914802"/>
<path d="M49.9509 2.80502C51.3674 1.38848 53.6532 1.00206 56.3035 1.65347C58.9442 2.30252 61.8641 3.96877 64.4143 6.51896C66.9645 9.06915 68.6307 11.9891 69.2798 14.6298C69.9312 17.28 69.5448 19.5659 68.1282 20.9824C66.7117 22.3989 64.4259 22.7853 61.7756 22.1339C59.1349 21.4849 56.215 19.8186 53.6648 17.2684C51.1146 14.7183 49.4484 11.7984 48.7993 9.15766C48.1479 6.50736 48.5343 4.22156 49.9509 2.80502Z" stroke="#00160A" stroke-width="0.914802"/>
<rect x="58.5079" y="9.01971" width="1.0636" height="5.5909" fill="#00160A"/>
<rect x="54.767" y="12.3623" width="1.0636" height="4.4965" transform="rotate(-60 54.767 12.3623)" fill="#00160A"/>
<rect x="56.2411" y="10.342" width="1.0636" height="4.4965" transform="rotate(-30 56.2411 10.342)" fill="#00160A"/>
<rect width="1.06162" height="4.48814" transform="matrix(-0.500932 -0.867639 -0.867639 0.500932 63.4716 12.3623)" fill="#00160A"/>
<rect width="1.06162" height="4.48814" transform="matrix(-0.867639 -0.500932 -0.500932 0.867639 61.9975 10.342)" fill="#00160A"/>
<rect x="63.4716" y="13.7042" width="1.0636" height="8.86426" transform="rotate(90 63.4716 13.7042)" fill="#00160A"/>
<path d="M72.1 4.35151C72.1 2.52854 73.5778 1.05073 75.4008 1.05073H89.4423C89.4423 2.8737 87.9645 4.35151 86.1416 4.35151H82.724V18.8813C82.724 21.0384 80.9754 22.787 78.8183 22.787V4.35151H72.1Z" fill="#00160A"/>
<path d="M95.9744 23.1054C94.3399 23.1054 92.9283 22.7658 91.7396 22.0865C90.558 21.4002 89.6488 20.4308 89.012 19.1785C88.3751 17.919 88.0567 16.4367 88.0567 14.7314C88.0567 13.0545 88.3751 11.5828 89.012 10.3163C89.6558 9.04264 90.5544 8.05205 91.7078 7.34449C92.8611 6.62986 94.2161 6.27254 95.7727 6.27254C96.7774 6.27254 97.7256 6.43528 98.6171 6.76075C99.5157 7.07916 100.308 7.57445 100.995 8.24663C101.688 8.91882 102.233 9.77497 102.629 10.8151C103.025 11.8481 103.223 13.0793 103.223 14.5086V15.6866H89.861V13.097H99.5405C99.5334 12.3611 99.3742 11.7066 99.0629 11.1335C98.7515 10.5533 98.3164 10.0969 97.7574 9.76435C97.2055 9.4318 96.5616 9.26552 95.8258 9.26552C95.0404 9.26552 94.3505 9.45656 93.7562 9.83865C93.1618 10.2137 92.6983 10.7089 92.3658 11.3245C92.0403 11.933 91.874 12.6017 91.867 13.3305V15.5911C91.867 16.5393 92.0403 17.353 92.387 18.0322C92.7337 18.7044 93.2184 19.2209 93.8411 19.5818C94.4637 19.9356 95.1925 20.1124 96.0274 20.1124C96.5864 20.1124 97.0923 20.0346 97.5452 19.8789C97.998 19.7162 98.3907 19.4792 98.7232 19.1679C99.0558 18.8565 99.307 18.4709 99.4768 18.011L103.064 18.4143C102.838 19.3624 102.406 20.1903 101.769 20.8978C101.14 21.5983 100.333 22.1431 99.3494 22.5323C98.3659 22.9144 97.2409 23.1054 95.9744 23.1054Z" fill="#00160A"/>
<path d="M104.979 22.787V10.2101C104.979 8.15268 106.647 6.4848 108.705 6.4848V9.20184H108.874C109.172 8.26079 109.681 7.53553 110.403 7.02609C111.132 6.50957 111.963 6.25131 112.897 6.25131C113.109 6.25131 113.346 6.26192 113.608 6.28315C113.877 6.2973 114.1 6.32207 114.277 6.35744V9.10154C114.277 9.48805 113.886 9.78918 113.502 9.74313C113.155 9.6936 112.819 9.66883 112.494 9.66883C111.793 9.66883 111.163 9.82096 110.604 10.1252C110.053 10.4224 109.617 10.8363 109.299 11.367C108.981 11.8977 108.821 12.5097 108.821 13.2031V18.945C108.821 21.0669 107.101 22.787 104.979 22.787Z" fill="#00160A"/>
<path d="M119.734 23.116C118.701 23.116 117.771 22.9321 116.943 22.5641C116.122 22.1891 115.471 21.6372 114.99 20.9085C114.516 20.1797 114.279 19.2811 114.279 18.2126C114.279 17.2928 114.449 16.5322 114.788 15.9308C115.128 15.3293 115.591 14.8482 116.179 14.4873C116.766 14.1265 117.427 13.8541 118.163 13.6701C118.906 13.4791 119.674 13.3411 120.466 13.2562C121.422 13.1571 122.196 13.0687 122.791 12.9908C123.385 12.9059 123.817 12.7786 124.086 12.6088C124.362 12.4319 124.5 12.1595 124.5 11.7915V11.7278C124.5 10.9283 124.263 10.3092 123.788 9.87049C123.314 9.4318 122.632 9.21246 121.74 9.21246C120.799 9.21246 120.053 9.41765 119.501 9.82803C118.956 10.2384 118.588 10.7231 118.397 11.2821L114.809 10.7726C115.093 9.78204 115.559 8.95419 116.21 8.28909C116.861 7.6169 117.657 7.11453 118.598 6.78198C119.54 6.44235 120.58 6.27254 121.719 6.27254C122.504 6.27254 123.286 6.36452 124.064 6.54849C124.843 6.73245 125.554 7.0367 126.198 7.46124C126.842 7.8787 127.358 8.44829 127.747 9.17C128.143 9.89171 128.342 10.7939 128.342 11.8764V19.0936C128.342 21.1334 126.688 22.787 124.648 22.787V20.5476H124.521C124.287 21.0004 123.958 21.425 123.534 21.8212C123.116 22.2104 122.589 22.5252 121.952 22.7658C121.323 22.9993 120.583 23.116 119.734 23.116ZM120.732 20.2929C121.503 20.2929 122.172 20.1407 122.738 19.8365C123.304 19.5252 123.739 19.1148 124.043 18.6053C124.354 18.0959 124.51 17.5405 124.51 16.939V15.018C124.39 15.1171 124.185 15.209 123.895 15.2939C123.612 15.3789 123.293 15.4532 122.939 15.5168C122.586 15.5805 122.235 15.6371 121.889 15.6866C121.542 15.7362 121.241 15.7786 120.986 15.814C120.413 15.8918 119.9 16.0192 119.448 16.1961C118.995 16.373 118.637 16.6206 118.376 16.939C118.114 17.2504 117.983 17.6537 117.983 18.149C117.983 18.8565 118.241 19.3907 118.758 19.7516C119.274 20.1124 119.932 20.2929 120.732 20.2929Z" fill="#00160A"/>
<path d="M130.711 28.9004V10.2632C130.711 8.17645 132.402 6.4848 134.489 6.4848V9.18061H134.712C134.91 8.78438 135.189 8.36338 135.55 7.91762C135.911 7.46478 136.399 7.07916 137.015 6.76075C137.63 6.43528 138.416 6.27254 139.371 6.27254C140.631 6.27254 141.766 6.59448 142.778 7.23836C143.797 7.87516 144.603 8.81976 145.198 10.0721C145.799 11.3175 146.1 12.8458 146.1 14.6571C146.1 16.4473 145.806 17.9685 145.219 19.2209C144.632 20.4733 143.832 21.4285 142.82 22.0865C141.809 22.7446 140.662 23.0736 139.382 23.0736C138.448 23.0736 137.673 22.9179 137.057 22.6066C136.442 22.2953 135.946 21.9203 135.571 21.4816C135.204 21.0358 134.917 20.6148 134.712 20.2186H134.553V25.0583C134.553 27.1802 132.832 28.9004 130.711 28.9004ZM134.478 14.6359C134.478 15.6902 134.627 16.6136 134.924 17.406C135.228 18.1985 135.663 18.8176 136.229 19.2634C136.803 19.7021 137.496 19.9214 138.31 19.9214C139.159 19.9214 139.87 19.695 140.443 19.2421C141.016 18.7822 141.448 18.156 141.738 17.3636C142.035 16.564 142.184 15.6548 142.184 14.6359C142.184 13.6241 142.039 12.7255 141.748 11.9401C141.458 11.1547 141.027 10.5391 140.454 10.0934C139.881 9.64761 139.166 9.42472 138.31 9.42472C137.489 9.42472 136.792 9.64053 136.219 10.0721C135.646 10.5038 135.211 11.1087 134.913 11.887C134.623 12.6654 134.478 13.5816 134.478 14.6359Z" fill="#00160A"/>
<path d="M147.896 22.787V10.3269C147.896 8.20495 149.616 6.4848 151.738 6.4848V18.945C151.738 21.0669 150.018 22.787 147.896 22.787ZM149.827 4.17108C149.219 4.17108 148.695 3.96942 148.257 3.56611C147.818 3.15573 147.599 2.66397 147.599 2.09084C147.599 1.51064 147.818 1.01889 148.257 0.615578C148.695 0.205193 149.219 0 149.827 0C150.443 0 150.967 0.205193 151.398 0.615578C151.837 1.01889 152.056 1.51064 152.056 2.09084C152.056 2.66397 151.837 3.15573 151.398 3.56611C150.967 3.96942 150.443 4.17108 149.827 4.17108Z" fill="#00160A"/>
<path d="M158.885 23.116C157.852 23.116 156.922 22.9321 156.094 22.5641C155.273 22.1891 154.622 21.6372 154.141 20.9085C153.667 20.1797 153.43 19.2811 153.43 18.2126C153.43 17.2928 153.6 16.5322 153.94 15.9308C154.279 15.3293 154.743 14.8482 155.33 14.4873C155.917 14.1265 156.579 13.8541 157.315 13.6701C158.058 13.4791 158.825 13.3411 159.618 13.2562C160.573 13.1571 161.348 13.0687 161.942 12.9908C162.536 12.9059 162.968 12.7786 163.237 12.6088C163.513 12.4319 163.651 12.1595 163.651 11.7915V11.7278C163.651 10.9283 163.414 10.3092 162.94 9.87049C162.466 9.4318 161.783 9.21246 160.891 9.21246C159.95 9.21246 159.204 9.41765 158.652 9.82803C158.107 10.2384 157.739 10.7231 157.548 11.2821L153.961 10.7726C154.244 9.78204 154.711 8.95419 155.362 8.28909C156.013 7.6169 156.809 7.11453 157.75 6.78198C158.691 6.44235 159.731 6.27254 160.87 6.27254C161.656 6.27254 162.437 6.36452 163.216 6.54849C163.994 6.73245 164.705 7.0367 165.349 7.46124C165.993 7.8787 166.509 8.44829 166.899 9.17C167.295 9.89171 167.493 10.7939 167.493 11.8764V19.0936C167.493 21.1334 165.839 22.787 163.799 22.787V20.5476H163.672C163.439 21.0004 163.11 21.425 162.685 21.8212C162.268 22.2104 161.74 22.5252 161.104 22.7658C160.474 22.9993 159.735 23.116 158.885 23.116ZM159.883 20.2929C160.654 20.2929 161.323 20.1407 161.889 19.8365C162.455 19.5252 162.89 19.1148 163.194 18.6053C163.506 18.0959 163.661 17.5405 163.661 16.939V15.018C163.541 15.1171 163.336 15.209 163.046 15.2939C162.763 15.3789 162.444 15.4532 162.091 15.5168C161.737 15.5805 161.387 15.6371 161.04 15.6866C160.693 15.7362 160.393 15.7786 160.138 15.814C159.565 15.8918 159.052 16.0192 158.599 16.1961C158.146 16.373 157.789 16.6206 157.527 16.939C157.265 17.2504 157.134 17.6537 157.134 18.149C157.134 18.8565 157.392 19.3907 157.909 19.7516C158.426 20.1124 159.084 20.2929 159.883 20.2929Z" fill="#00160A"/>
</svg>
