<svg width="195" height="119" viewBox="0 0 195 119" fill="none" xmlns="http://www.w3.org/2000/svg">
<path d="M100.344 2.41926C108.729 0.358205 115.963 1.58143 120.445 6.06331C124.927 10.5452 126.15 17.779 124.089 26.1644C122.035 34.5194 116.762 43.7569 108.693 51.8255C100.625 59.8942 91.3872 65.1676 83.0322 67.2212C74.6468 69.2823 67.413 68.059 62.9311 63.5772C58.4492 59.0953 57.226 51.8616 59.2871 43.4761C61.3406 35.1211 66.6141 25.8836 74.6828 17.815C82.7514 9.74629 91.9889 4.47284 100.344 2.41926Z" stroke="#00160A" stroke-width="2.89238"/>
<path d="M62.9314 6.06356C67.4133 1.58165 74.647 0.358416 83.0325 2.4195C91.3874 4.47312 100.625 9.7466 108.694 17.8152C116.762 25.8838 122.036 35.1214 124.089 43.4763C126.15 51.8618 124.927 59.0955 120.445 63.5774C115.963 68.0593 108.73 69.2825 100.344 67.2215C91.9893 65.1679 82.7517 59.8944 74.6831 51.8258C66.6145 43.7572 61.341 34.5196 59.2874 26.1646C57.2263 17.7791 58.4495 10.5455 62.9314 6.06356Z" stroke="#00160A" stroke-width="2.89238"/>
<rect x="90.0061" y="25.7269" width="3.36517" height="17.6893" fill="#00160A"/>
<rect x="78.17" y="36.3029" width="3.36517" height="14.2267" transform="rotate(-60 78.17 36.3029)" fill="#00160A"/>
<rect x="82.834" y="29.9098" width="3.36517" height="14.2267" transform="rotate(-30 82.834 29.9098)" fill="#00160A"/>
<rect width="3.35658" height="14.1904" transform="matrix(-0.501278 -0.86824 -0.86824 0.501278 105.711 36.3029)" fill="#00160A"/>
<rect width="3.35658" height="14.1904" transform="matrix(-0.86824 -0.501278 -0.501278 0.86824 101.047 29.9098)" fill="#00160A"/>
<rect x="105.711" y="40.548" width="3.36517" height="28.046" transform="rotate(90 105.711 40.548)" fill="#00160A"/>
<path d="M0 110.412V81.3898H18.8759V85.797H5.25747V93.6761H17.8981V98.0833H5.25747V106.005H18.9892V110.412H0Z" fill="#00160A"/>
<path d="M31.5122 110.837C29.3393 110.837 27.4735 110.36 25.9146 109.406C24.3653 108.452 23.1702 107.134 22.3294 105.452C21.498 103.761 21.0823 101.815 21.0823 99.6138C21.0823 97.4031 21.5074 95.4522 22.3577 93.7612C23.208 92.0606 24.4078 90.738 25.9571 89.7933C27.516 88.8391 29.3582 88.362 31.4839 88.362C33.2505 88.362 34.8141 88.6879 36.1745 89.3398C37.5444 89.9822 38.6355 90.8939 39.448 92.0748C40.2605 93.2463 40.7234 94.6161 40.8368 96.1844H35.9336C35.7352 95.1357 35.2628 94.2619 34.5165 93.5628C33.7796 92.8542 32.7923 92.4999 31.5547 92.4999C30.5061 92.4999 29.5849 92.7833 28.7914 93.3502C27.9978 93.9076 27.379 94.7106 26.935 95.7593C26.5004 96.8079 26.2831 98.0644 26.2831 99.5288C26.2831 101.012 26.5004 102.287 26.935 103.355C27.3695 104.413 27.9789 105.23 28.763 105.807C29.5566 106.373 30.4872 106.657 31.5547 106.657C32.3105 106.657 32.986 106.515 33.5812 106.232C34.1858 105.939 34.6913 105.518 35.0975 104.97C35.5037 104.423 35.7824 103.756 35.9336 102.972H40.8368C40.714 104.512 40.2605 105.877 39.4763 107.068C38.6922 108.249 37.6247 109.175 36.2737 109.845C34.9227 110.507 33.3356 110.837 31.5122 110.837Z" fill="#00160A"/>
<path d="M52.5484 110.837C50.4228 110.837 48.5806 110.37 47.0217 109.434C45.4629 108.499 44.2536 107.191 43.3939 105.509C42.5437 103.827 42.1185 101.862 42.1185 99.6138C42.1185 97.3653 42.5437 95.3955 43.3939 93.7045C44.2536 92.0134 45.4629 90.7002 47.0217 89.7649C48.5806 88.8296 50.4228 88.362 52.5484 88.362C54.6741 88.362 56.5164 88.8296 58.0752 89.7649C59.634 90.7002 60.8385 92.0134 61.6888 93.7045C62.5485 95.3955 62.9784 97.3653 62.9784 99.6138C62.9784 101.862 62.5485 103.827 61.6888 105.509C60.8385 107.191 59.634 108.499 58.0752 109.434C56.5164 110.37 54.6741 110.837 52.5484 110.837ZM52.5768 106.728C53.7294 106.728 54.693 106.411 55.4677 105.778C56.2424 105.136 56.8187 104.276 57.1966 103.199C57.5839 102.122 57.7776 100.922 57.7776 99.5996C57.7776 98.2676 57.5839 97.063 57.1966 95.986C56.8187 94.8996 56.2424 94.0351 55.4677 93.3927C54.693 92.7503 53.7294 92.4291 52.5768 92.4291C51.3959 92.4291 50.4133 92.7503 49.6292 93.3927C48.8545 94.0351 48.2735 94.8996 47.8862 95.986C47.5083 97.063 47.3193 98.2676 47.3193 99.5996C47.3193 100.922 47.5083 102.122 47.8862 103.199C48.2735 104.276 48.8545 105.136 49.6292 105.778C50.4133 106.411 51.3959 106.728 52.5768 106.728Z" fill="#00160A"/>
<path d="M64.5655 86.2222C64.5655 83.7882 66.5386 81.815 68.9727 81.815H87.721C87.721 84.2491 85.7478 86.2222 83.3138 86.2222H78.7507V105.622C78.7507 108.503 76.4159 110.837 73.5358 110.837V86.2222H64.5655Z" fill="#00160A"/>
<path d="M96.4426 111.263C94.2602 111.263 92.3755 110.809 90.7883 109.902C89.2106 108.986 87.9966 107.691 87.1464 106.019C86.2961 104.338 85.871 102.358 85.871 100.082C85.871 97.8425 86.2961 95.8775 87.1464 94.1864C88.0061 92.4858 89.2059 91.1632 90.7458 90.2185C92.2857 89.2643 94.0949 88.7872 96.1733 88.7872C97.5149 88.7872 98.7808 89.0045 99.9712 89.4391C101.171 89.8642 102.229 90.5255 103.145 91.423C104.071 92.3205 104.799 93.4636 105.328 94.8524C105.857 96.2317 106.121 97.8756 106.121 99.7839V101.357H88.28V97.8992H101.204C101.195 96.9167 100.982 96.0428 100.566 95.2775C100.151 94.5029 99.5697 93.8935 98.8233 93.4495C98.0864 93.0055 97.2267 92.7834 96.2442 92.7834C95.1955 92.7834 94.2744 93.0385 93.4808 93.5487C92.6872 94.0494 92.0684 94.7107 91.6244 95.5326C91.1898 96.3451 90.9678 97.2379 90.9584 98.211V101.229C90.9584 102.495 91.1898 103.582 91.6528 104.489C92.1157 105.386 92.7628 106.076 93.5942 106.558C94.4256 107.03 95.3986 107.266 96.5134 107.266C97.2598 107.266 97.9353 107.162 98.5399 106.955C99.1445 106.737 99.6689 106.421 100.113 106.005C100.557 105.589 100.892 105.074 101.119 104.46L105.909 104.999C105.607 106.265 105.03 107.37 104.18 108.315C103.339 109.25 102.262 109.978 100.949 110.497C99.6358 111.007 98.1337 111.263 96.4426 111.263Z" fill="#00160A"/>
<path d="M108.466 110.837V94.0447C108.466 91.2976 110.693 89.0706 113.44 89.0706V92.6984H113.667C114.064 91.4419 114.744 90.4736 115.707 89.7933C116.681 89.1037 117.791 88.7589 119.038 88.7589C119.321 88.7589 119.638 88.773 119.987 88.8014C120.346 88.8203 120.644 88.8533 120.88 88.9006V92.5645C120.88 93.0806 120.358 93.4826 119.845 93.4211C119.382 93.355 118.934 93.3219 118.499 93.3219C117.564 93.3219 116.723 93.5251 115.977 93.9313C115.24 94.3281 114.659 94.8808 114.234 95.5893C113.809 96.2979 113.596 97.1151 113.596 98.0409V105.707C113.596 108.541 111.299 110.837 108.466 110.837Z" fill="#00160A"/>
<path d="M128.167 111.277C126.787 111.277 125.545 111.031 124.44 110.54C123.344 110.039 122.475 109.302 121.832 108.329C121.199 107.356 120.883 106.156 120.883 104.73C120.883 103.501 121.109 102.486 121.563 101.683C122.016 100.88 122.635 100.237 123.419 99.7556C124.203 99.2738 125.087 98.9101 126.069 98.6644C127.061 98.4094 128.086 98.2251 129.144 98.1118C130.42 97.9795 131.454 97.8614 132.248 97.7575C133.041 97.6441 133.618 97.4741 133.977 97.2473C134.345 97.0111 134.529 96.6474 134.529 96.1562V96.0711C134.529 95.0036 134.213 94.1769 133.58 93.5912C132.947 93.0055 132.035 92.7126 130.845 92.7126C129.588 92.7126 128.592 92.9866 127.855 93.5345C127.127 94.0825 126.636 94.7296 126.381 95.4759L121.591 94.7957C121.969 93.4731 122.593 92.3678 123.462 91.4797C124.331 90.5822 125.394 89.9114 126.65 89.4674C127.907 89.0139 129.296 88.7872 130.817 88.7872C131.865 88.7872 132.909 88.91 133.948 89.1556C134.988 89.4013 135.937 89.8075 136.797 90.3744C137.657 90.9318 138.346 91.6923 138.866 92.6559C139.395 93.6195 139.659 94.8241 139.659 96.2695V105.906C139.659 108.629 137.451 110.837 134.728 110.837V107.847H134.558C134.246 108.452 133.807 109.019 133.24 109.548C132.682 110.067 131.979 110.488 131.128 110.809C130.288 111.121 129.3 111.277 128.167 111.277ZM129.499 107.507C130.528 107.507 131.421 107.304 132.177 106.898C132.933 106.482 133.514 105.934 133.92 105.254C134.336 104.574 134.544 103.832 134.544 103.029V100.464C134.383 100.596 134.109 100.719 133.722 100.833C133.344 100.946 132.919 101.045 132.446 101.13C131.974 101.215 131.506 101.291 131.043 101.357C130.58 101.423 130.179 101.48 129.839 101.527C129.074 101.631 128.389 101.801 127.784 102.037C127.179 102.273 126.702 102.604 126.353 103.029C126.003 103.445 125.828 103.983 125.828 104.645C125.828 105.589 126.173 106.303 126.863 106.784C127.553 107.266 128.431 107.507 129.499 107.507Z" fill="#00160A"/>
<path d="M142.822 119V94.1155C142.822 91.3293 145.081 89.0706 147.867 89.0706V92.6701H148.165C148.429 92.141 148.803 91.5789 149.284 90.9837C149.766 90.3791 150.418 89.8642 151.24 89.4391C152.062 89.0045 153.111 88.7872 154.386 88.7872C156.068 88.7872 157.584 89.2171 158.935 90.0768C160.295 90.927 161.372 92.1883 162.166 93.8604C162.969 95.5232 163.37 97.5638 163.37 99.9823C163.37 102.373 162.978 104.404 162.194 106.076C161.41 107.748 160.343 109.023 158.992 109.902C157.641 110.781 156.11 111.22 154.4 111.22C153.153 111.22 152.119 111.012 151.297 110.596C150.475 110.181 149.813 109.68 149.313 109.094C148.821 108.499 148.439 107.937 148.165 107.408H147.952V113.87C147.952 116.703 145.656 119 142.822 119ZM147.853 99.954C147.853 101.362 148.051 102.595 148.448 103.653C148.855 104.711 149.436 105.537 150.191 106.133C150.957 106.718 151.882 107.011 152.969 107.011C154.103 107.011 155.052 106.709 155.817 106.104C156.582 105.49 157.159 104.654 157.546 103.596C157.943 102.528 158.141 101.314 158.141 99.954C158.141 98.603 157.948 97.4032 157.56 96.3545C157.173 95.3059 156.597 94.484 155.831 93.8888C155.066 93.2936 154.112 92.996 152.969 92.996C151.873 92.996 150.942 93.2841 150.177 93.8604C149.412 94.4367 148.831 95.2445 148.434 96.2837C148.047 97.3229 147.853 98.5463 147.853 99.954Z" fill="#00160A"/>
<path d="M165.768 110.837V94.2005C165.768 91.3674 168.065 89.0706 170.898 89.0706V105.707C170.898 108.541 168.601 110.837 165.768 110.837ZM168.347 85.9813C167.535 85.9813 166.836 85.7121 166.25 85.1736C165.664 84.6256 165.371 83.969 165.371 83.2038C165.371 82.4291 165.664 81.7725 166.25 81.234C166.836 80.6861 167.535 80.4121 168.347 80.4121C169.169 80.4121 169.868 80.6861 170.445 81.234C171.03 81.7725 171.323 82.4291 171.323 83.2038C171.323 83.969 171.03 84.6256 170.445 85.1736C169.868 85.7121 169.169 85.9813 168.347 85.9813Z" fill="#00160A"/>
<path d="M180.442 111.277C179.062 111.277 177.82 111.031 176.715 110.54C175.619 110.039 174.75 109.302 174.107 108.329C173.474 107.356 173.158 106.156 173.158 104.73C173.158 103.501 173.384 102.486 173.838 101.683C174.291 100.88 174.91 100.237 175.694 99.7556C176.478 99.2738 177.362 98.9101 178.344 98.6644C179.336 98.4094 180.361 98.2251 181.419 98.1118C182.695 97.9795 183.729 97.8614 184.523 97.7575C185.316 97.6441 185.893 97.4741 186.252 97.2473C186.62 97.0111 186.804 96.6474 186.804 96.1562V96.0711C186.804 95.0036 186.488 94.1769 185.855 93.5912C185.222 93.0055 184.31 92.7126 183.12 92.7126C181.863 92.7126 180.867 92.9866 180.13 93.5345C179.402 94.0825 178.911 94.7296 178.656 95.4759L173.866 94.7957C174.244 93.4731 174.868 92.3678 175.737 91.4797C176.606 90.5822 177.669 89.9114 178.925 89.4674C180.182 89.0139 181.571 88.7872 183.092 88.7872C184.14 88.7872 185.184 88.91 186.223 89.1556C187.263 89.4013 188.212 89.8075 189.072 90.3744C189.931 90.9318 190.621 91.6923 191.141 92.6559C191.67 93.6195 191.934 94.8241 191.934 96.2695V105.906C191.934 108.629 189.726 110.837 187.003 110.837V107.847H186.833C186.521 108.452 186.082 109.019 185.515 109.548C184.957 110.067 184.254 110.488 183.403 110.809C182.563 111.121 181.575 111.277 180.442 111.277ZM181.774 107.507C182.803 107.507 183.696 107.304 184.452 106.898C185.208 106.482 185.789 105.934 186.195 105.254C186.611 104.574 186.819 103.832 186.819 103.029V100.464C186.658 100.596 186.384 100.719 185.997 100.833C185.619 100.946 185.194 101.045 184.721 101.13C184.249 101.215 183.781 101.291 183.318 101.357C182.855 101.423 182.454 101.48 182.114 101.527C181.349 101.631 180.664 101.801 180.059 102.037C179.454 102.273 178.977 102.604 178.628 103.029C178.278 103.445 178.103 103.983 178.103 104.645C178.103 105.589 178.448 106.303 179.138 106.784C179.828 107.266 180.706 107.507 181.774 107.507Z" fill="#00160A"/>
</svg>
